<?xml version="1.0" standalone="no"?>
  <!DOCTYPE svg PUBLIC "-//W3C//DTD SVG 1.1//EN" "http://www.w3.org/Graphics/SVG/1.1/DTD/svg11.dtd" >
  <svg>
  <metadata>
  Created by font-carrier
  </metadata>
  <defs>
  <font id="SFProRounded-Bold" horiz-adv-x="5817" vert-adv-y="5817" >
    <font-face
      
      font-family="SF Pro Rounded"
      
      font-weight="400"
      
      font-stretch="normal"
      
      units-per-em="2048"
      
      ascent="1950"
      
      descent="-494"
      
    />
      <missing-glyph />

      

      
      <glyph glyph-name="uni41" unicode="&#x41;" d="M216-19C296-19 341 21 369 117L445 342L966 342L1042 114C1069 20 1114-19 1199-19C1287-19 1350 40 1350 123C1350 153 1345 180 1331 219L935 1293C892 1411 822 1463 704 1463C590 1463 519 1409 477 1292L83 219C70 182 63 148 63 123C63 36 122-19 216-19ZM511 576L698 1167L705 1167L896 576Z"  horiz-adv-x="1413" vert-adv-y="2048"  />

      
      <glyph glyph-name="unic0" unicode="&#xc0;" d="M657 1536C712 1536 754 1572 754 1620C754 1641 746 1661 730 1683L608 1847C575 1891 551 1905 508 1905C448 1905 404 1865 404 1809C404 1784 416 1758 440 1731L570 1584C603 1546 622 1536 657 1536ZM216-19C296-19 341 21 369 117L445 342L966 342L1042 114C1069 20 1114-19 1199-19C1287-19 1350 40 1350 123C1350 153 1345 180 1331 219L935 1293C892 1411 822 1463 704 1463C590 1463 519 1409 477 1292L83 219C70 182 63 148 63 123C63 36 122-19 216-19ZM511 576L698 1167L705 1167L896 576Z"  horiz-adv-x="1413" vert-adv-y="2048"  />

      
      <glyph glyph-name="unic1" unicode="&#xc1;" d="M753 1532C788 1532 807 1542 841 1580L971 1727C995 1754 1006 1779 1006 1804C1006 1860 963 1900 903 1900C859 1900 835 1886 803 1842L680 1678C664 1657 657 1637 657 1615C657 1567 698 1532 753 1532ZM216-19C296-19 341 21 369 117L445 342L966 342L1042 114C1069 20 1114-19 1199-19C1287-19 1350 40 1350 123C1350 153 1345 180 1331 219L935 1293C892 1411 822 1463 704 1463C590 1463 519 1409 477 1292L83 219C70 182 63 148 63 123C63 36 122-19 216-19ZM511 576L698 1167L705 1167L896 576Z"  horiz-adv-x="1413" vert-adv-y="2048"  />

      
      <glyph glyph-name="unic4" unicode="&#xc4;" d="M503 1570C579 1570 637 1629 637 1700C637 1772 579 1830 503 1830C427 1830 369 1772 369 1700C369 1629 427 1570 503 1570ZM911 1570C987 1570 1045 1629 1045 1700C1045 1772 987 1830 911 1830C835 1830 777 1772 777 1700C777 1629 835 1570 911 1570ZM216-19C296-19 341 21 369 117L445 342L966 342L1042 114C1069 20 1114-19 1199-19C1287-19 1350 40 1350 123C1350 153 1345 180 1331 219L935 1293C892 1411 822 1463 704 1463C590 1463 519 1409 477 1292L83 219C70 182 63 148 63 123C63 36 122-19 216-19ZM511 576L698 1167L705 1167L896 576Z"  horiz-adv-x="1413" vert-adv-y="2048"  />

      
      <glyph glyph-name="uni01DE" unicode="&#x01DE;" d="M426 1925L987 1925C1040 1925 1070 1955 1070 1999C1070 2042 1040 2073 987 2073L426 2073C374 2073 344 2042 344 1999C344 1955 374 1925 426 1925ZM507 1801C432 1801 376 1744 376 1673C376 1603 432 1545 507 1545C582 1545 638 1603 638 1673C638 1744 582 1801 507 1801ZM906 1801C832 1801 775 1744 775 1673C775 1603 832 1545 906 1545C981 1545 1038 1603 1038 1673C1038 1744 981 1801 906 1801ZM216-19C296-19 341 21 369 117L445 342L966 342L1042 114C1069 20 1114-19 1199-19C1287-19 1350 40 1350 123C1350 153 1345 180 1331 219L935 1293C892 1411 822 1463 704 1463C590 1463 519 1409 477 1292L83 219C70 182 63 148 63 123C63 36 122-19 216-19ZM511 576L698 1167L705 1167L896 576Z"  horiz-adv-x="1413" vert-adv-y="2048"  />

      
      <glyph glyph-name="unic5" unicode="&#xc5;" d="M707 1518C819 1518 912 1609 912 1720C912 1832 819 1922 707 1922C595 1922 501 1832 501 1720C501 1609 595 1518 707 1518ZM707 1630C657 1630 615 1670 615 1720C615 1770 657 1810 707 1810C757 1810 798 1770 798 1720C798 1670 757 1630 707 1630ZM216-19C296-19 341 21 369 117L445 342L966 342L1042 114C1069 20 1114-19 1199-19C1287-19 1350 40 1350 123C1350 153 1345 180 1331 219L935 1293C892 1411 822 1463 704 1463C590 1463 519 1409 477 1292L83 219C70 182 63 148 63 123C63 36 122-19 216-19ZM511 576L698 1167L705 1167L896 576Z"  horiz-adv-x="1413" vert-adv-y="2048"  />

      
      <glyph glyph-name="uni212B" unicode="&#x212B;" d="M707 1518C819 1518 912 1609 912 1720C912 1832 819 1922 707 1922C595 1922 501 1832 501 1720C501 1609 595 1518 707 1518ZM707 1630C657 1630 615 1670 615 1720C615 1770 657 1810 707 1810C757 1810 798 1770 798 1720C798 1670 757 1630 707 1630ZM216-19C296-19 341 21 369 117L445 342L966 342L1042 114C1069 20 1114-19 1199-19C1287-19 1350 40 1350 123C1350 153 1345 180 1331 219L935 1293C892 1411 822 1463 704 1463C590 1463 519 1409 477 1292L83 219C70 182 63 148 63 123C63 36 122-19 216-19ZM511 576L698 1167L705 1167L896 576Z"  horiz-adv-x="1413" vert-adv-y="2048"  />

      
      <glyph glyph-name="uni01FA" unicode="&#x01FA;" d="M746 1934C782 1934 801 1944 827 1977L883 2048C903 2073 911 2092 911 2115C911 2163 873 2198 818 2198C773 2198 749 2184 724 2142L675 2065C660 2040 656 2026 656 2009C656 1965 693 1934 746 1934ZM707 1504C820 1504 906 1589 906 1699C906 1810 820 1894 707 1894C594 1894 507 1810 507 1699C507 1589 594 1504 707 1504ZM707 1614C659 1614 621 1651 621 1699C621 1747 659 1785 707 1785C755 1785 792 1747 792 1699C792 1651 755 1614 707 1614ZM216-19C296-19 341 21 369 117L445 342L966 342L1042 114C1069 20 1114-19 1199-19C1287-19 1350 40 1350 123C1350 153 1345 180 1331 219L935 1293C892 1411 822 1463 704 1463C590 1463 519 1409 477 1292L83 219C70 182 63 148 63 123C63 36 122-19 216-19ZM511 576L698 1167L705 1167L896 576Z"  horiz-adv-x="1413" vert-adv-y="2048"  />

      
      <glyph glyph-name="unic3" unicode="&#xc3;" d="M439 1552C485 1552 508 1578 518 1622C529 1679 550 1699 584 1699C659 1699 710 1563 849 1563C967 1563 1062 1656 1062 1783C1062 1830 1030 1862 984 1862C938 1862 916 1837 905 1790C894 1736 874 1716 842 1716C768 1716 719 1851 577 1851C456 1851 362 1761 362 1632C362 1584 393 1552 439 1552ZM216-19C296-19 341 21 369 117L445 342L966 342L1042 114C1069 20 1114-19 1199-19C1287-19 1350 40 1350 123C1350 153 1345 180 1331 219L935 1293C892 1411 822 1463 704 1463C590 1463 519 1409 477 1292L83 219C70 182 63 148 63 123C63 36 122-19 216-19ZM511 576L698 1167L705 1167L896 576Z"  horiz-adv-x="1413" vert-adv-y="2048"  />

      
      <glyph glyph-name="uni1EB0" unicode="&#x1EB0;" d="M692 1855C744 1855 780 1887 780 1932C780 1952 774 1970 762 1986L671 2107C643 2145 615 2163 577 2163C524 2163 482 2130 482 2078C482 2051 494 2029 513 2008L609 1898C637 1866 659 1855 692 1855ZM707 1540C885 1540 1016 1632 1046 1747C1051 1763 1054 1778 1054 1795C1054 1842 1019 1873 971 1873C920 1873 895 1847 874 1800C849 1732 796 1688 707 1688C617 1688 564 1732 539 1800C518 1847 494 1873 442 1873C394 1873 360 1841 360 1792C360 1776 363 1759 368 1744C400 1634 529 1540 707 1540ZM216-19C296-19 341 21 369 117L445 342L966 342L1042 114C1069 20 1114-19 1199-19C1287-19 1350 40 1350 123C1350 153 1345 180 1331 219L935 1293C892 1411 822 1463 704 1463C590 1463 519 1409 477 1292L83 219C70 182 63 148 63 123C63 36 122-19 216-19ZM511 576L698 1167L705 1167L896 576Z"  horiz-adv-x="1413" vert-adv-y="2048"  />

      
      <glyph glyph-name="uni01E0" unicode="&#x01E0;" d="M429 1925L985 1925C1037 1925 1067 1955 1067 1999C1067 2042 1037 2073 985 2073L429 2073C376 2073 346 2042 346 1999C346 1955 376 1925 429 1925ZM707 1555C785 1555 844 1615 844 1689C844 1761 785 1821 707 1821C628 1821 569 1761 569 1689C569 1615 628 1555 707 1555ZM216-19C296-19 341 21 369 117L445 342L966 342L1042 114C1069 20 1114-19 1199-19C1287-19 1350 40 1350 123C1350 153 1345 180 1331 219L935 1293C892 1411 822 1463 704 1463C590 1463 519 1409 477 1292L83 219C70 182 63 148 63 123C63 36 122-19 216-19ZM511 576L698 1167L705 1167L896 576Z"  horiz-adv-x="1413" vert-adv-y="2048"  />

      
      <glyph glyph-name="uni1E00" unicode="&#x1E00;" d="M216-19C296-19 341 21 369 117L445 342L966 342L1042 114C1069 20 1114-19 1199-19C1287-19 1350 40 1350 123C1350 153 1345 180 1331 219L935 1293C892 1411 822 1463 704 1463C590 1463 519 1409 477 1292L83 219C70 182 63 148 63 123C63 36 122-19 216-19ZM511 576L698 1167L705 1167L896 576ZM707-537C825-537 924-441 924-324C924-206 825-110 707-110C588-110 489-206 489-324C489-441 588-537 707-537ZM707-417C655-417 611-375 611-324C611-272 655-229 707-229C759-229 802-272 802-324C802-375 759-417 707-417Z"  horiz-adv-x="1413" vert-adv-y="2048"  />

      
      <glyph glyph-name="unic2" unicode="&#xc2;" d="M487 1521C521 1521 542 1534 568 1567L703 1730L710 1730L845 1567C871 1535 892 1521 927 1521C976 1521 1012 1555 1012 1600C1012 1622 1004 1640 986 1662L847 1821C810 1866 767 1885 707 1885C645 1885 604 1866 566 1820L428 1662C410 1640 402 1623 402 1601C402 1556 438 1521 487 1521ZM216-19C296-19 341 21 369 117L445 342L966 342L1042 114C1069 20 1114-19 1199-19C1287-19 1350 40 1350 123C1350 153 1345 180 1331 219L935 1293C892 1411 822 1463 704 1463C590 1463 519 1409 477 1292L83 219C70 182 63 148 63 123C63 36 122-19 216-19ZM511 576L698 1167L705 1167L896 576Z"  horiz-adv-x="1413" vert-adv-y="2048"  />

      
      <glyph glyph-name="uni1EAC" unicode="&#x1EAC;" d="M487 1521C521 1521 542 1534 568 1567L703 1730L710 1730L845 1567C871 1535 892 1521 927 1521C976 1521 1012 1555 1012 1600C1012 1622 1004 1640 986 1662L847 1821C810 1866 767 1885 707 1885C645 1885 604 1866 566 1820L428 1662C410 1640 402 1623 402 1601C402 1556 438 1521 487 1521ZM216-19C296-19 341 21 369 117L445 342L966 342L1042 114C1069 20 1114-19 1199-19C1287-19 1350 40 1350 123C1350 153 1345 180 1331 219L935 1293C892 1411 822 1463 704 1463C590 1463 519 1409 477 1292L83 219C70 182 63 148 63 123C63 36 122-19 216-19ZM511 576L698 1167L705 1167L896 576ZM707-456C790-456 856-389 856-307C856-225 790-158 707-158C623-158 558-225 558-307C558-389 623-456 707-456Z"  horiz-adv-x="1413" vert-adv-y="2048"  />

      
      <glyph glyph-name="uni1EA4" unicode="&#x1EA4;" d="M960 1869C995 1869 1013 1878 1042 1911L1130 2012C1150 2035 1159 2057 1159 2081C1159 2130 1120 2166 1065 2166C1027 2166 1002 2151 968 2106L889 2001C877 1984 871 1967 871 1946C871 1903 910 1869 960 1869ZM477 1517C510 1517 532 1532 558 1559L703 1710L710 1710L856 1559C881 1532 903 1517 936 1517C982 1517 1017 1549 1017 1595C1017 1619 1006 1640 986 1661L848 1795C807 1837 768 1859 707 1859C646 1859 607 1837 565 1795L428 1661C407 1640 397 1619 397 1595C397 1549 431 1517 477 1517ZM216-19C296-19 341 21 369 117L445 342L966 342L1042 114C1069 20 1114-19 1199-19C1287-19 1350 40 1350 123C1350 153 1345 180 1331 219L935 1293C892 1411 822 1463 704 1463C590 1463 519 1409 477 1292L83 219C70 182 63 148 63 123C63 36 122-19 216-19ZM511 576L698 1167L705 1167L896 576Z"  horiz-adv-x="1413" vert-adv-y="2048"  />

      
      <glyph glyph-name="uni1EAA" unicode="&#x1EAA;" d="M447 1876C487 1876 509 1892 522 1936C536 1984 557 1999 586 1999C656 1999 700 1875 841 1875C953 1875 1043 1961 1043 2062C1043 2114 1015 2145 968 2145C928 2145 906 2129 893 2085C880 2040 856 2023 827 2023C756 2023 715 2146 574 2146C457 2146 372 2060 372 1959C372 1907 400 1876 447 1876ZM497 1529C532 1529 551 1542 577 1571L703 1701L710 1701L836 1571C862 1542 881 1529 917 1529C962 1529 995 1560 995 1607C995 1631 986 1649 965 1672L848 1786C812 1825 774 1839 707 1839C639 1839 601 1825 565 1786L449 1672C427 1649 418 1631 418 1607C418 1560 451 1529 497 1529ZM216-19C296-19 341 21 369 117L445 342L966 342L1042 114C1069 20 1114-19 1199-19C1287-19 1350 40 1350 123C1350 153 1345 180 1331 219L935 1293C892 1411 822 1463 704 1463C590 1463 519 1409 477 1292L83 219C70 182 63 148 63 123C63 36 122-19 216-19ZM511 576L698 1167L705 1167L896 576Z"  horiz-adv-x="1413" vert-adv-y="2048"  />

      
      <glyph glyph-name="uni1EA6" unicode="&#x1EA6;" d="M919 1869C969 1869 1008 1903 1008 1946C1008 1967 1002 1984 990 2001L911 2106C877 2151 852 2166 814 2166C759 2166 720 2130 720 2081C720 2057 729 2035 749 2012L837 1911C866 1878 884 1869 919 1869ZM477 1517C510 1517 532 1532 558 1559L703 1710L710 1710L856 1559C881 1532 903 1517 936 1517C982 1517 1017 1549 1017 1595C1017 1619 1006 1640 986 1661L848 1795C807 1837 768 1859 707 1859C646 1859 607 1837 565 1795L428 1661C407 1640 397 1619 397 1595C397 1549 431 1517 477 1517ZM216-19C296-19 341 21 369 117L445 342L966 342L1042 114C1069 20 1114-19 1199-19C1287-19 1350 40 1350 123C1350 153 1345 180 1331 219L935 1293C892 1411 822 1463 704 1463C590 1463 519 1409 477 1292L83 219C70 182 63 148 63 123C63 36 122-19 216-19ZM511 576L698 1167L705 1167L896 576Z"  horiz-adv-x="1413" vert-adv-y="2048"  />

      
      <glyph glyph-name="uni1EA8" unicode="&#x1EA8;" d="M1017 1762C1044 1762 1070 1771 1092 1786C1146 1818 1181 1878 1181 1952C1181 2073 1101 2143 965 2143C912 2143 872 2132 846 2113C827 2099 817 2081 817 2058C817 2025 838 2006 876 2006C887 2006 895 2008 907 2010C916 2011 923 2012 933 2012C983 2012 1017 1984 1017 1944C1017 1914 1004 1890 978 1870C957 1853 950 1840 950 1818C950 1786 979 1762 1017 1762ZM477 1517C510 1517 532 1532 558 1559L703 1710L710 1710L856 1559C881 1532 903 1517 936 1517C982 1517 1017 1549 1017 1595C1017 1619 1006 1640 986 1661L848 1795C807 1837 768 1859 707 1859C646 1859 607 1837 565 1795L428 1661C407 1640 397 1619 397 1595C397 1549 431 1517 477 1517ZM216-19C296-19 341 21 369 117L445 342L966 342L1042 114C1069 20 1114-19 1199-19C1287-19 1350 40 1350 123C1350 153 1345 180 1331 219L935 1293C892 1411 822 1463 704 1463C590 1463 519 1409 477 1292L83 219C70 182 63 148 63 123C63 36 122-19 216-19ZM511 576L698 1167L705 1167L896 576Z"  horiz-adv-x="1413" vert-adv-y="2048"  />

      
      <glyph glyph-name="uni0102" unicode="&#x0102;" d="M707 1539C872 1539 1010 1625 1043 1749C1048 1765 1050 1780 1050 1797C1050 1843 1017 1875 968 1875C922 1875 895 1855 871 1802C842 1727 787 1689 707 1689C626 1689 572 1727 543 1802C518 1855 491 1875 446 1875C396 1875 363 1842 363 1794C363 1778 366 1760 372 1746C408 1624 546 1539 707 1539ZM216-19C296-19 341 21 369 117L445 342L966 342L1042 114C1069 20 1114-19 1199-19C1287-19 1350 40 1350 123C1350 153 1345 180 1331 219L935 1293C892 1411 822 1463 704 1463C590 1463 519 1409 477 1292L83 219C70 182 63 148 63 123C63 36 122-19 216-19ZM511 576L698 1167L705 1167L896 576Z"  horiz-adv-x="1413" vert-adv-y="2048"  />

      
      <glyph glyph-name="uni1EAE" unicode="&#x1EAE;" d="M729 1869C764 1869 782 1878 811 1911L899 2012C919 2035 928 2057 928 2081C928 2129 891 2166 834 2166C796 2166 771 2151 737 2106L658 2001C646 1983 640 1966 640 1946C640 1904 678 1869 729 1869ZM707 1540C885 1540 1016 1632 1046 1747C1051 1763 1054 1778 1054 1795C1054 1842 1019 1873 971 1873C920 1873 895 1847 874 1800C849 1732 796 1688 707 1688C617 1688 564 1732 539 1800C518 1847 494 1873 442 1873C394 1873 360 1841 360 1792C360 1776 363 1759 368 1744C400 1634 529 1540 707 1540ZM216-19C296-19 341 21 369 117L445 342L966 342L1042 114C1069 20 1114-19 1199-19C1287-19 1350 40 1350 123C1350 153 1345 180 1331 219L935 1293C892 1411 822 1463 704 1463C590 1463 519 1409 477 1292L83 219C70 182 63 148 63 123C63 36 122-19 216-19ZM511 576L698 1167L705 1167L896 576Z"  horiz-adv-x="1413" vert-adv-y="2048"  />

      
      <glyph glyph-name="uni1EB4" unicode="&#x1EB4;" d="M447 1880C486 1880 509 1898 520 1944C532 1989 557 2007 586 2007C656 2007 700 1883 840 1883C951 1883 1041 1970 1041 2071C1041 2125 1013 2156 964 2156C925 2156 902 2138 891 2092C878 2047 857 2031 827 2031C756 2031 715 2153 574 2153C456 2153 370 2067 370 1965C370 1911 398 1880 447 1880ZM707 1540C873 1540 1004 1622 1039 1718C1045 1734 1048 1751 1048 1768C1048 1814 1014 1844 968 1844C920 1844 896 1821 870 1778C837 1725 783 1688 707 1688C630 1688 576 1725 544 1778C517 1821 494 1844 446 1844C398 1844 365 1813 365 1765C365 1749 369 1732 376 1715C412 1624 540 1540 707 1540ZM216-19C296-19 341 21 369 117L445 342L966 342L1042 114C1069 20 1114-19 1199-19C1287-19 1350 40 1350 123C1350 153 1345 180 1331 219L935 1293C892 1411 822 1463 704 1463C590 1463 519 1409 477 1292L83 219C70 182 63 148 63 123C63 36 122-19 216-19ZM511 576L698 1167L705 1167L896 576Z"  horiz-adv-x="1413" vert-adv-y="2048"  />

      
      <glyph glyph-name="uni1EB2" unicode="&#x1EB2;" d="M710 1807C735 1807 757 1815 780 1829C843 1869 881 1932 881 2001C881 2108 793 2178 658 2178C601 2178 559 2165 535 2143C516 2131 507 2114 507 2093C507 2060 529 2042 566 2042C577 2042 586 2043 597 2044C606 2045 615 2046 624 2046C677 2046 713 2019 713 1978C713 1954 701 1933 679 1913C653 1890 647 1879 647 1860C647 1830 672 1807 710 1807ZM707 1540C885 1540 1016 1632 1046 1747C1051 1763 1054 1778 1054 1795C1054 1842 1019 1873 971 1873C920 1873 895 1847 874 1800C849 1732 796 1688 707 1688C617 1688 564 1732 539 1800C518 1847 494 1873 442 1873C394 1873 360 1841 360 1792C360 1776 363 1759 368 1744C400 1634 529 1540 707 1540ZM216-19C296-19 341 21 369 117L445 342L966 342L1042 114C1069 20 1114-19 1199-19C1287-19 1350 40 1350 123C1350 153 1345 180 1331 219L935 1293C892 1411 822 1463 704 1463C590 1463 519 1409 477 1292L83 219C70 182 63 148 63 123C63 36 122-19 216-19ZM511 576L698 1167L705 1167L896 576Z"  horiz-adv-x="1413" vert-adv-y="2048"  />

      
      <glyph glyph-name="uni1EB6" unicode="&#x1EB6;" d="M707 1539C872 1539 1010 1625 1043 1749C1048 1765 1050 1780 1050 1797C1050 1843 1017 1875 968 1875C922 1875 895 1855 871 1802C842 1727 787 1689 707 1689C626 1689 572 1727 543 1802C518 1855 491 1875 446 1875C396 1875 363 1842 363 1794C363 1778 366 1760 372 1746C408 1624 546 1539 707 1539ZM216-19C296-19 341 21 369 117L445 342L966 342L1042 114C1069 20 1114-19 1199-19C1287-19 1350 40 1350 123C1350 153 1345 180 1331 219L935 1293C892 1411 822 1463 704 1463C590 1463 519 1409 477 1292L83 219C70 182 63 148 63 123C63 36 122-19 216-19ZM511 576L698 1167L705 1167L896 576ZM707-456C790-456 856-389 856-307C856-225 790-158 707-158C623-158 558-225 558-307C558-389 623-456 707-456Z"  horiz-adv-x="1413" vert-adv-y="2048"  />

      
      <glyph glyph-name="uni0202" unicode="&#x0202;" d="M448 1526C493 1526 520 1546 545 1599C574 1671 624 1710 707 1710C788 1710 841 1671 869 1599C893 1546 920 1526 966 1526C1015 1526 1048 1558 1048 1604C1048 1621 1046 1636 1041 1652C1008 1776 873 1859 707 1859C546 1859 410 1777 374 1655C368 1641 365 1623 365 1607C365 1559 398 1526 448 1526ZM216-19C296-19 341 21 369 117L445 342L966 342L1042 114C1069 20 1114-19 1199-19C1287-19 1350 40 1350 123C1350 153 1345 180 1331 219L935 1293C892 1411 822 1463 704 1463C590 1463 519 1409 477 1292L83 219C70 182 63 148 63 123C63 36 122-19 216-19ZM511 576L698 1167L705 1167L896 576Z"  horiz-adv-x="1413" vert-adv-y="2048"  />

      
      <glyph glyph-name="uni01CD" unicode="&#x01CD;" d="M707 1516C774 1516 813 1536 851 1583L989 1741C1007 1763 1016 1784 1016 1807C1016 1851 980 1883 932 1883C897 1883 877 1871 849 1837L710 1668L703 1668L564 1837C537 1871 516 1883 482 1883C434 1883 398 1851 398 1807C398 1784 406 1763 424 1741L562 1584C600 1537 640 1516 707 1516ZM216-19C296-19 341 21 369 117L445 342L966 342L1042 114C1069 20 1114-19 1199-19C1287-19 1350 40 1350 123C1350 153 1345 180 1331 219L935 1293C892 1411 822 1463 704 1463C590 1463 519 1409 477 1292L83 219C70 182 63 148 63 123C63 36 122-19 216-19ZM511 576L698 1167L705 1167L896 576Z"  horiz-adv-x="1413" vert-adv-y="2048"  />

      
      <glyph glyph-name="uni0226" unicode="&#x0226;" d="M707 1561C790 1561 856 1628 856 1710C856 1792 790 1859 707 1859C623 1859 558 1792 558 1710C558 1628 623 1561 707 1561ZM216-19C296-19 341 21 369 117L445 342L966 342L1042 114C1069 20 1114-19 1199-19C1287-19 1350 40 1350 123C1350 153 1345 180 1331 219L935 1293C892 1411 822 1463 704 1463C590 1463 519 1409 477 1292L83 219C70 182 63 148 63 123C63 36 122-19 216-19ZM511 576L698 1167L705 1167L896 576Z"  horiz-adv-x="1413" vert-adv-y="2048"  />

      
      <glyph glyph-name="uni1EA0" unicode="&#x1EA0;" d="M216-19C296-19 341 21 369 117L445 342L966 342L1042 114C1069 20 1114-19 1199-19C1287-19 1350 40 1350 123C1350 153 1345 180 1331 219L935 1293C892 1411 822 1463 704 1463C590 1463 519 1409 477 1292L83 219C70 182 63 148 63 123C63 36 122-19 216-19ZM511 576L698 1167L705 1167L896 576ZM707-456C790-456 856-389 856-307C856-225 790-158 707-158C623-158 558-225 558-307C558-389 623-456 707-456Z"  horiz-adv-x="1413" vert-adv-y="2048"  />

      
      <glyph glyph-name="uni1EA2" unicode="&#x1EA2;" d="M700 1521C724 1521 744 1527 765 1537C844 1575 901 1655 901 1742C901 1863 808 1937 661 1937C596 1937 551 1923 528 1897C517 1885 511 1870 511 1852C511 1818 536 1795 573 1795C577 1795 584 1796 587 1796C601 1797 614 1799 628 1799C688 1799 724 1771 724 1726C724 1695 706 1665 668 1638C646 1623 629 1607 629 1580C629 1546 655 1521 700 1521ZM216-19C296-19 341 21 369 117L445 342L966 342L1042 114C1069 20 1114-19 1199-19C1287-19 1350 40 1350 123C1350 153 1345 180 1331 219L935 1293C892 1411 822 1463 704 1463C590 1463 519 1409 477 1292L83 219C70 182 63 148 63 123C63 36 122-19 216-19ZM511 576L698 1167L705 1167L896 576Z"  horiz-adv-x="1413" vert-adv-y="2048"  />

      
      <glyph glyph-name="uni0200" unicode="&#x0200;" d="M834 1533C885 1533 920 1566 920 1613C920 1635 913 1656 897 1677L788 1822C749 1875 725 1891 682 1891C626 1891 584 1854 584 1803C584 1774 592 1755 612 1732L745 1580C776 1545 799 1533 834 1533ZM489 1533C540 1533 575 1566 575 1613C575 1635 568 1656 552 1677L443 1822C404 1875 380 1891 337 1891C281 1891 239 1854 239 1803C239 1774 247 1755 267 1732L400 1580C431 1545 454 1533 489 1533ZM216-19C296-19 341 21 369 117L445 342L966 342L1042 114C1069 20 1114-19 1199-19C1287-19 1350 40 1350 123C1350 153 1345 180 1331 219L935 1293C892 1411 822 1463 704 1463C590 1463 519 1409 477 1292L83 219C70 182 63 148 63 123C63 36 122-19 216-19ZM511 576L698 1167L705 1167L896 576Z"  horiz-adv-x="1413" vert-adv-y="2048"  />

      
      <glyph glyph-name="uni0100" unicode="&#x0100;" d="M425 1620L988 1620C1038 1620 1070 1650 1070 1696C1070 1740 1038 1768 988 1768L425 1768C375 1768 344 1740 344 1696C344 1650 375 1620 425 1620ZM216-19C296-19 341 21 369 117L445 342L966 342L1042 114C1069 20 1114-19 1199-19C1287-19 1350 40 1350 123C1350 153 1345 180 1331 219L935 1293C892 1411 822 1463 704 1463C590 1463 519 1409 477 1292L83 219C70 182 63 148 63 123C63 36 122-19 216-19ZM511 576L698 1167L705 1167L896 576Z"  horiz-adv-x="1413" vert-adv-y="2048"  />

      
      <glyph glyph-name="uni0104" unicode="&#x0104;" d="M215-24C294-24 339 15 368 112L445 342L966 342L1077 1C968-69 914-152 914-246C914-375 1023-462 1186-462C1212-462 1236-459 1256-454C1313-440 1343-408 1343-363C1343-332 1328-310 1300-300C1287-295 1272-292 1253-292C1176-291 1128-259 1128-197C1128-138 1181-89 1253-44C1330 2 1356 42 1356 107C1356 134 1348 170 1335 207L934 1297C890 1416 820 1468 703 1468C591 1468 521 1415 479 1297L82 214C69 177 62 143 62 118C62 31 121-24 215-24ZM511 576L698 1165L705 1165L895 576Z"  horiz-adv-x="1413" vert-adv-y="2048"  />

      
      <glyph glyph-name="uni42" unicode="&#x42;" d="M271 0L759 0C1067 0 1258 159 1258 413C1258 604 1114 747 918 762L918 770C1071 793 1189 925 1189 1083C1189 1304 1019 1443 748 1443L271 1443C176 1443 120 1385 120 1286L120 158C120 58 176 0 271 0ZM422 843L422 1218L670 1218C811 1218 892 1152 892 1036C892 914 800 843 639 843ZM422 225L422 644L675 644C853 644 950 572 950 437C950 299 856 225 682 225Z"  horiz-adv-x="1310" vert-adv-y="2048"  />

      
      <glyph glyph-name="uni1E06" unicode="&#x1E06;" d="M271 0L759 0C1067 0 1258 159 1258 413C1258 604 1114 747 918 762L918 770C1071 793 1189 925 1189 1083C1189 1304 1019 1443 748 1443L271 1443C176 1443 120 1385 120 1286L120 158C120 58 176 0 271 0ZM422 843L422 1218L670 1218C811 1218 892 1152 892 1036C892 914 800 843 639 843ZM422 225L422 644L675 644C853 644 950 572 950 437C950 299 856 225 682 225ZM345-376L908-376C958-376 990-346 990-301C990-256 958-228 908-228L345-228C295-228 264-256 264-301C264-346 295-376 345-376Z"  horiz-adv-x="1310" vert-adv-y="2048"  />

      
      <glyph glyph-name="uni1E04" unicode="&#x1E04;" d="M271 0L759 0C1067 0 1258 159 1258 413C1258 604 1114 747 918 762L918 770C1071 793 1189 925 1189 1083C1189 1304 1019 1443 748 1443L271 1443C176 1443 120 1385 120 1286L120 158C120 58 176 0 271 0ZM422 843L422 1218L670 1218C811 1218 892 1152 892 1036C892 914 800 843 639 843ZM422 225L422 644L675 644C853 644 950 572 950 437C950 299 856 225 682 225ZM627-456C710-456 776-389 776-307C776-225 710-158 627-158C543-158 478-225 478-307C478-389 543-456 627-456Z"  horiz-adv-x="1310" vert-adv-y="2048"  />

      
      <glyph glyph-name="uni1E02" unicode="&#x1E02;" d="M627 1561C710 1561 776 1628 776 1710C776 1792 710 1859 627 1859C543 1859 478 1792 478 1710C478 1628 543 1561 627 1561ZM271 0L759 0C1067 0 1258 159 1258 413C1258 604 1114 747 918 762L918 770C1071 793 1189 925 1189 1083C1189 1304 1019 1443 748 1443L271 1443C176 1443 120 1385 120 1286L120 158C120 58 176 0 271 0ZM422 843L422 1218L670 1218C811 1218 892 1152 892 1036C892 914 800 843 639 843ZM422 225L422 644L675 644C853 644 950 572 950 437C950 299 856 225 682 225Z"  horiz-adv-x="1310" vert-adv-y="2048"  />

      
      <glyph glyph-name="uni43" unicode="&#x43;" d="M763-24C1036-24 1251 99 1341 299C1356 334 1364 366 1364 400C1364 480 1308 534 1223 534C1159 534 1121 507 1090 439C1025 294 911 225 759 225C528 225 383 415 383 723C383 1027 530 1218 758 1218C902 1218 1020 1144 1086 997C1119 927 1162 897 1230 897C1310 897 1363 948 1363 1027C1363 1063 1353 1102 1333 1140C1234 1348 1025 1468 755 1468C340 1468 75 1187 75 722C75 256 335-24 763-24Z"  horiz-adv-x="1459" vert-adv-y="2048"  />

      
      <glyph glyph-name="uni0106" unicode="&#x0106;" d="M792 1533C827 1533 846 1543 880 1581L1010 1728C1034 1755 1045 1780 1045 1805C1045 1861 1002 1901 942 1901C898 1901 874 1887 842 1843L719 1679C703 1658 696 1638 696 1616C696 1568 737 1533 792 1533ZM763-24C1036-24 1251 99 1341 299C1356 334 1364 366 1364 400C1364 480 1308 534 1223 534C1159 534 1121 507 1090 439C1025 294 911 225 759 225C528 225 383 415 383 723C383 1027 530 1218 758 1218C902 1218 1020 1144 1086 997C1119 927 1162 897 1230 897C1310 897 1363 948 1363 1027C1363 1063 1353 1102 1333 1140C1234 1348 1025 1468 755 1468C340 1468 75 1187 75 722C75 256 335-24 763-24Z"  horiz-adv-x="1459" vert-adv-y="2048"  />

      
      <glyph glyph-name="uni010C" unicode="&#x010C;" d="M746 1517C813 1517 852 1537 890 1584L1028 1742C1046 1764 1055 1785 1055 1808C1055 1852 1019 1884 971 1884C936 1884 916 1872 888 1838L749 1669L742 1669L603 1838C576 1872 555 1884 521 1884C473 1884 437 1852 437 1808C437 1785 445 1764 463 1742L601 1585C639 1538 679 1517 746 1517ZM763-24C1036-24 1251 99 1341 299C1356 334 1364 366 1364 400C1364 480 1308 534 1223 534C1159 534 1121 507 1090 439C1025 294 911 225 759 225C528 225 383 415 383 723C383 1027 530 1218 758 1218C902 1218 1020 1144 1086 997C1119 927 1162 897 1230 897C1310 897 1363 948 1363 1027C1363 1063 1353 1102 1333 1140C1234 1348 1025 1468 755 1468C340 1468 75 1187 75 722C75 256 335-24 763-24Z"  horiz-adv-x="1459" vert-adv-y="2048"  />

      
      <glyph glyph-name="uni0108" unicode="&#x0108;" d="M526 1522C560 1522 581 1535 607 1568L742 1731L749 1731L884 1568C910 1536 931 1522 966 1522C1015 1522 1051 1556 1051 1601C1051 1623 1043 1641 1025 1663L886 1822C849 1867 806 1886 746 1886C684 1886 643 1867 605 1821L467 1663C449 1641 441 1624 441 1602C441 1557 477 1522 526 1522ZM763-24C1036-24 1251 99 1341 299C1356 334 1364 366 1364 400C1364 480 1308 534 1223 534C1159 534 1121 507 1090 439C1025 294 911 225 759 225C528 225 383 415 383 723C383 1027 530 1218 758 1218C902 1218 1020 1144 1086 997C1119 927 1162 897 1230 897C1310 897 1363 948 1363 1027C1363 1063 1353 1102 1333 1140C1234 1348 1025 1468 755 1468C340 1468 75 1187 75 722C75 256 335-24 763-24Z"  horiz-adv-x="1459" vert-adv-y="2048"  />

      
      <glyph glyph-name="uni010A" unicode="&#x010A;" d="M746 1562C829 1562 895 1629 895 1711C895 1793 829 1860 746 1860C662 1860 597 1793 597 1711C597 1629 662 1562 746 1562ZM763-24C1036-24 1251 99 1341 299C1356 334 1364 366 1364 400C1364 480 1308 534 1223 534C1159 534 1121 507 1090 439C1025 294 911 225 759 225C528 225 383 415 383 723C383 1027 530 1218 758 1218C902 1218 1020 1144 1086 997C1119 927 1162 897 1230 897C1310 897 1363 948 1363 1027C1363 1063 1353 1102 1333 1140C1234 1348 1025 1468 755 1468C340 1468 75 1187 75 722C75 256 335-24 763-24Z"  horiz-adv-x="1459" vert-adv-y="2048"  />

      
      <glyph glyph-name="unic7" unicode="&#xc7;" d="M738-460C886-460 981-394 981-273C981-171 906-110 793-109L833-22C1072-2 1259 117 1341 299C1356 334 1364 366 1364 400C1364 480 1308 534 1223 534C1159 534 1121 507 1090 439C1025 294 911 225 759 225C528 225 383 415 383 723C383 1027 530 1218 758 1218C902 1218 1020 1144 1086 997C1119 927 1162 897 1230 897C1310 897 1363 948 1363 1027C1363 1063 1353 1102 1333 1140C1234 1348 1025 1468 755 1468C340 1468 75 1187 75 722C75 288 300 15 677-21L639-103C628-125 622-145 622-164C622-202 651-226 697-226L718-226C782-226 813-243 813-279C813-317 779-336 713-336C684-336 661-331 640-331C603-331 580-351 580-383C580-416 600-438 643-449C668-456 699-460 738-460Z"  horiz-adv-x="1459" vert-adv-y="2048"  />

      
      <glyph glyph-name="uni1E08" unicode="&#x1E08;" d="M792 1533C827 1533 846 1543 880 1581L1010 1728C1034 1755 1045 1780 1045 1805C1045 1861 1002 1901 942 1901C898 1901 874 1887 842 1843L719 1679C703 1658 696 1638 696 1616C696 1568 737 1533 792 1533ZM738-460C886-460 981-394 981-273C981-171 906-110 793-109L833-22C1072-2 1259 117 1341 299C1356 334 1364 366 1364 400C1364 480 1308 534 1223 534C1159 534 1121 507 1090 439C1025 294 911 225 759 225C528 225 383 415 383 723C383 1027 530 1218 758 1218C902 1218 1020 1144 1086 997C1119 927 1162 897 1230 897C1310 897 1363 948 1363 1027C1363 1063 1353 1102 1333 1140C1234 1348 1025 1468 755 1468C340 1468 75 1187 75 722C75 288 300 15 677-21L639-103C628-125 622-145 622-164C622-202 651-226 697-226L718-226C782-226 813-243 813-279C813-317 779-336 713-336C684-336 661-331 640-331C603-331 580-351 580-383C580-416 600-438 643-449C668-456 699-460 738-460Z"  horiz-adv-x="1459" vert-adv-y="2048"  />

      
      <glyph glyph-name="uni44" unicode="&#x44;" d="M271 0L671 0C1104 0 1359 269 1359 727C1359 1185 1104 1443 671 1443L271 1443C176 1443 120 1385 120 1286L120 158C120 58 176 0 271 0ZM422 250L422 1194L635 1194C901 1194 1051 1028 1051 726C1051 414 905 250 635 250Z"  horiz-adv-x="1433" vert-adv-y="2048"  />

      
      <glyph glyph-name="uni1E0A" unicode="&#x1E0A;" d="M645 1561C729 1561 794 1628 794 1710C794 1792 729 1859 645 1859C562 1859 496 1792 496 1710C496 1628 562 1561 645 1561ZM271 0L671 0C1104 0 1359 269 1359 727C1359 1185 1104 1443 671 1443L271 1443C176 1443 120 1385 120 1286L120 158C120 58 176 0 271 0ZM422 250L422 1194L635 1194C901 1194 1051 1028 1051 726C1051 414 905 250 635 250Z"  horiz-adv-x="1433" vert-adv-y="2048"  />

      
      <glyph glyph-name="uni1E12" unicode="&#x1E12;" d="M271 0L671 0C1104 0 1359 269 1359 727C1359 1185 1104 1443 671 1443L271 1443C176 1443 120 1385 120 1286L120 158C120 58 176 0 271 0ZM422 250L422 1194L635 1194C901 1194 1051 1028 1051 726C1051 414 905 250 635 250ZM425-474C460-474 481-461 507-429L642-265L649-265L784-429C809-461 831-474 865-474C914-474 951-440 951-395C951-373 943-356 925-334L786-175C749-130 706-110 646-110C584-110 543-129 505-175L366-333C348-355 340-373 340-395C340-440 376-474 425-474Z"  horiz-adv-x="1433" vert-adv-y="2048"  />

      
      <glyph glyph-name="uni1E10" unicode="&#x1E10;" d="M271 0L671 0C1104 0 1359 269 1359 727C1359 1185 1104 1443 671 1443L271 1443C176 1443 120 1385 120 1286L120 158C120 58 176 0 271 0ZM422 250L422 1194L635 1194C901 1194 1051 1028 1051 726C1051 414 905 250 635 250ZM570-510C616-510 646-492 675-438L744-279C757-257 764-233 764-210C764-153 720-114 655-114C598-114 565-142 540-203L482-372C475-389 471-405 471-423C471-476 515-510 570-510Z"  horiz-adv-x="1433" vert-adv-y="2048"  />

      
      <glyph glyph-name="uni1E0E" unicode="&#x1E0E;" d="M271 0L671 0C1104 0 1359 269 1359 727C1359 1185 1104 1443 671 1443L271 1443C176 1443 120 1385 120 1286L120 158C120 58 176 0 271 0ZM422 250L422 1194L635 1194C901 1194 1051 1028 1051 726C1051 414 905 250 635 250ZM364-376L927-376C977-376 1008-346 1008-301C1008-256 977-228 927-228L364-228C314-228 282-256 282-301C282-346 314-376 364-376Z"  horiz-adv-x="1433" vert-adv-y="2048"  />

      
      <glyph glyph-name="uni010E" unicode="&#x010E;" d="M645 1516C713 1516 751 1536 789 1583L928 1741C946 1763 954 1784 954 1807C954 1851 918 1883 870 1883C836 1883 815 1871 788 1837L649 1668L642 1668L503 1837C475 1871 455 1883 420 1883C372 1883 336 1851 336 1807C336 1784 345 1763 363 1741L500 1584C539 1537 578 1516 645 1516ZM271 0L671 0C1104 0 1359 269 1359 727C1359 1185 1104 1443 671 1443L271 1443C176 1443 120 1385 120 1286L120 158C120 58 176 0 271 0ZM422 250L422 1194L635 1194C901 1194 1051 1028 1051 726C1051 414 905 250 635 250Z"  horiz-adv-x="1433" vert-adv-y="2048"  />

      
      <glyph glyph-name="uni1E0C" unicode="&#x1E0C;" d="M271 0L671 0C1104 0 1359 269 1359 727C1359 1185 1104 1443 671 1443L271 1443C176 1443 120 1385 120 1286L120 158C120 58 176 0 271 0ZM422 250L422 1194L635 1194C901 1194 1051 1028 1051 726C1051 414 905 250 635 250ZM645-456C729-456 794-389 794-307C794-225 729-158 645-158C562-158 496-225 496-307C496-389 562-456 645-456Z"  horiz-adv-x="1433" vert-adv-y="2048"  />

      
      <glyph glyph-name="uni0110" unicode="&#x0110;" d="M291 0L691 0C1124 0 1379 269 1379 727C1379 1185 1124 1443 691 1443L291 1443C196 1443 140 1385 140 1286L140 843L139 843C69 843 25 801 25 732C25 664 69 622 139 622L140 622L140 158C140 58 196 0 291 0ZM442 250L442 622L600 622C670 622 714 664 714 732C714 801 670 843 600 843L442 843L442 1194L655 1194C920 1194 1071 1028 1071 726C1071 414 924 250 655 250Z"  horiz-adv-x="1453" vert-adv-y="2048"  />

      
      <glyph glyph-name="uni45" unicode="&#x45;" d="M271 0L957 0C1040 0 1094 47 1094 125C1094 203 1039 250 957 250L422 250L422 614L931 614C1007 614 1057 658 1057 730C1057 802 1006 846 931 846L422 846L422 1193L957 1193C1039 1193 1094 1240 1094 1318C1094 1396 1040 1443 957 1443L271 1443C176 1443 120 1385 120 1286L120 158C120 58 176 0 271 0Z"  horiz-adv-x="1174" vert-adv-y="2048"  />

      
      <glyph glyph-name="unic8" unicode="&#xc8;" d="M548 1536C603 1536 645 1572 645 1620C645 1641 637 1661 621 1683L499 1847C466 1891 442 1905 399 1905C339 1905 295 1865 295 1809C295 1784 307 1758 331 1731L461 1584C494 1546 513 1536 548 1536ZM271 0L957 0C1040 0 1094 47 1094 125C1094 203 1039 250 957 250L422 250L422 614L931 614C1007 614 1057 658 1057 730C1057 802 1006 846 931 846L422 846L422 1193L957 1193C1039 1193 1094 1240 1094 1318C1094 1396 1040 1443 957 1443L271 1443C176 1443 120 1385 120 1286L120 158C120 58 176 0 271 0Z"  horiz-adv-x="1174" vert-adv-y="2048"  />

      
      <glyph glyph-name="uni0204" unicode="&#x0204;" d="M725 1533C776 1533 811 1566 811 1613C811 1635 804 1656 788 1677L679 1822C640 1875 616 1891 573 1891C517 1891 475 1854 475 1803C475 1774 483 1755 503 1732L636 1580C667 1545 690 1533 725 1533ZM380 1533C431 1533 466 1566 466 1613C466 1635 459 1656 443 1677L334 1822C295 1875 271 1891 228 1891C172 1891 130 1854 130 1803C130 1774 138 1755 158 1732L291 1580C322 1545 345 1533 380 1533ZM271 0L957 0C1040 0 1094 47 1094 125C1094 203 1039 250 957 250L422 250L422 614L931 614C1007 614 1057 658 1057 730C1057 802 1006 846 931 846L422 846L422 1193L957 1193C1039 1193 1094 1240 1094 1318C1094 1396 1040 1443 957 1443L271 1443C176 1443 120 1385 120 1286L120 158C120 58 176 0 271 0Z"  horiz-adv-x="1174" vert-adv-y="2048"  />

      
      <glyph glyph-name="unic9" unicode="&#xc9;" d="M644 1532C679 1532 698 1542 732 1580L862 1727C886 1754 897 1779 897 1804C897 1860 854 1900 794 1900C750 1900 726 1886 694 1842L571 1678C555 1657 548 1637 548 1615C548 1567 589 1532 644 1532ZM271 0L957 0C1040 0 1094 47 1094 125C1094 203 1039 250 957 250L422 250L422 614L931 614C1007 614 1057 658 1057 730C1057 802 1006 846 931 846L422 846L422 1193L957 1193C1039 1193 1094 1240 1094 1318C1094 1396 1040 1443 957 1443L271 1443C176 1443 120 1385 120 1286L120 158C120 58 176 0 271 0Z"  horiz-adv-x="1174" vert-adv-y="2048"  />

      
      <glyph glyph-name="unica" unicode="&#xca;" d="M378 1521C412 1521 433 1534 459 1567L594 1730L601 1730L736 1567C762 1535 783 1521 818 1521C867 1521 903 1555 903 1600C903 1622 895 1640 877 1662L738 1821C701 1866 658 1885 598 1885C536 1885 495 1866 457 1820L319 1662C301 1640 293 1623 293 1601C293 1556 329 1521 378 1521ZM271 0L957 0C1040 0 1094 47 1094 125C1094 203 1039 250 957 250L422 250L422 614L931 614C1007 614 1057 658 1057 730C1057 802 1006 846 931 846L422 846L422 1193L957 1193C1039 1193 1094 1240 1094 1318C1094 1396 1040 1443 957 1443L271 1443C176 1443 120 1385 120 1286L120 158C120 58 176 0 271 0Z"  horiz-adv-x="1174" vert-adv-y="2048"  />

      
      <glyph glyph-name="uni1EC2" unicode="&#x1EC2;" d="M908 1762C935 1762 961 1771 983 1786C1037 1818 1072 1878 1072 1952C1072 2073 992 2143 856 2143C803 2143 763 2132 737 2113C718 2099 708 2081 708 2058C708 2025 729 2006 767 2006C778 2006 786 2008 798 2010C807 2011 814 2012 824 2012C874 2012 908 1984 908 1944C908 1914 895 1890 869 1870C848 1853 841 1840 841 1818C841 1786 870 1762 908 1762ZM368 1517C401 1517 423 1532 449 1559L594 1710L601 1710L747 1559C772 1532 794 1517 827 1517C873 1517 908 1549 908 1595C908 1619 897 1640 877 1661L739 1795C698 1837 659 1859 598 1859C537 1859 498 1837 456 1795L319 1661C298 1640 288 1619 288 1595C288 1549 322 1517 368 1517ZM271 0L957 0C1040 0 1094 47 1094 125C1094 203 1039 250 957 250L422 250L422 614L931 614C1007 614 1057 658 1057 730C1057 802 1006 846 931 846L422 846L422 1193L957 1193C1039 1193 1094 1240 1094 1318C1094 1396 1040 1443 957 1443L271 1443C176 1443 120 1385 120 1286L120 158C120 58 176 0 271 0Z"  horiz-adv-x="1174" vert-adv-y="2048"  />

      
      <glyph glyph-name="uni1EC0" unicode="&#x1EC0;" d="M810 1869C860 1869 899 1903 899 1946C899 1967 893 1984 881 2001L802 2106C768 2151 743 2166 705 2166C650 2166 611 2130 611 2081C611 2057 620 2035 640 2012L728 1911C757 1878 775 1869 810 1869ZM368 1517C401 1517 423 1532 449 1559L594 1710L601 1710L747 1559C772 1532 794 1517 827 1517C873 1517 908 1549 908 1595C908 1619 897 1640 877 1661L739 1795C698 1837 659 1859 598 1859C537 1859 498 1837 456 1795L319 1661C298 1640 288 1619 288 1595C288 1549 322 1517 368 1517ZM271 0L957 0C1040 0 1094 47 1094 125C1094 203 1039 250 957 250L422 250L422 614L931 614C1007 614 1057 658 1057 730C1057 802 1006 846 931 846L422 846L422 1193L957 1193C1039 1193 1094 1240 1094 1318C1094 1396 1040 1443 957 1443L271 1443C176 1443 120 1385 120 1286L120 158C120 58 176 0 271 0Z"  horiz-adv-x="1174" vert-adv-y="2048"  />

      
      <glyph glyph-name="uni1EC4" unicode="&#x1EC4;" d="M338 1876C378 1876 400 1892 413 1936C427 1984 448 1999 477 1999C547 1999 591 1875 732 1875C844 1875 934 1961 934 2062C934 2114 906 2145 859 2145C819 2145 797 2129 784 2085C771 2040 747 2023 718 2023C647 2023 606 2146 465 2146C348 2146 263 2060 263 1959C263 1907 291 1876 338 1876ZM388 1529C423 1529 442 1542 468 1571L594 1701L601 1701L727 1571C753 1542 772 1529 808 1529C853 1529 886 1560 886 1607C886 1631 877 1649 856 1672L739 1786C703 1825 665 1839 598 1839C530 1839 492 1825 456 1786L340 1672C318 1649 309 1631 309 1607C309 1560 342 1529 388 1529ZM271 0L957 0C1040 0 1094 47 1094 125C1094 203 1039 250 957 250L422 250L422 614L931 614C1007 614 1057 658 1057 730C1057 802 1006 846 931 846L422 846L422 1193L957 1193C1039 1193 1094 1240 1094 1318C1094 1396 1040 1443 957 1443L271 1443C176 1443 120 1385 120 1286L120 158C120 58 176 0 271 0Z"  horiz-adv-x="1174" vert-adv-y="2048"  />

      
      <glyph glyph-name="uni1EC6" unicode="&#x1EC6;" d="M378 1521C412 1521 433 1534 459 1567L594 1730L601 1730L736 1567C762 1535 783 1521 818 1521C867 1521 903 1555 903 1600C903 1622 895 1640 877 1662L738 1821C701 1866 658 1885 598 1885C536 1885 495 1866 457 1820L319 1662C301 1640 293 1623 293 1601C293 1556 329 1521 378 1521ZM271 0L957 0C1040 0 1094 47 1094 125C1094 203 1039 250 957 250L422 250L422 614L931 614C1007 614 1057 658 1057 730C1057 802 1006 846 931 846L422 846L422 1193L957 1193C1039 1193 1094 1240 1094 1318C1094 1396 1040 1443 957 1443L271 1443C176 1443 120 1385 120 1286L120 158C120 58 176 0 271 0ZM598-456C681-456 747-389 747-307C747-225 681-158 598-158C514-158 449-225 449-307C449-389 514-456 598-456Z"  horiz-adv-x="1174" vert-adv-y="2048"  />

      
      <glyph glyph-name="uni1EBE" unicode="&#x1EBE;" d="M851 1869C886 1869 904 1878 933 1911L1021 2012C1041 2035 1050 2057 1050 2081C1050 2130 1011 2166 956 2166C918 2166 893 2151 859 2106L780 2001C768 1984 762 1967 762 1946C762 1903 801 1869 851 1869ZM368 1517C401 1517 423 1532 449 1559L594 1710L601 1710L747 1559C772 1532 794 1517 827 1517C873 1517 908 1549 908 1595C908 1619 897 1640 877 1661L739 1795C698 1837 659 1859 598 1859C537 1859 498 1837 456 1795L319 1661C298 1640 288 1619 288 1595C288 1549 322 1517 368 1517ZM271 0L957 0C1040 0 1094 47 1094 125C1094 203 1039 250 957 250L422 250L422 614L931 614C1007 614 1057 658 1057 730C1057 802 1006 846 931 846L422 846L422 1193L957 1193C1039 1193 1094 1240 1094 1318C1094 1396 1040 1443 957 1443L271 1443C176 1443 120 1385 120 1286L120 158C120 58 176 0 271 0Z"  horiz-adv-x="1174" vert-adv-y="2048"  />

      
      <glyph glyph-name="unicb" unicode="&#xcb;" d="M394 1570C470 1570 528 1629 528 1700C528 1772 470 1830 394 1830C318 1830 260 1772 260 1700C260 1629 318 1570 394 1570ZM802 1570C878 1570 936 1629 936 1700C936 1772 878 1830 802 1830C726 1830 668 1772 668 1700C668 1629 726 1570 802 1570ZM271 0L957 0C1040 0 1094 47 1094 125C1094 203 1039 250 957 250L422 250L422 614L931 614C1007 614 1057 658 1057 730C1057 802 1006 846 931 846L422 846L422 1193L957 1193C1039 1193 1094 1240 1094 1318C1094 1396 1040 1443 957 1443L271 1443C176 1443 120 1385 120 1286L120 158C120 58 176 0 271 0Z"  horiz-adv-x="1174" vert-adv-y="2048"  />

      
      <glyph glyph-name="uni1EB8" unicode="&#x1EB8;" d="M271 0L957 0C1040 0 1094 47 1094 125C1094 203 1039 250 957 250L422 250L422 614L931 614C1007 614 1057 658 1057 730C1057 802 1006 846 931 846L422 846L422 1193L957 1193C1039 1193 1094 1240 1094 1318C1094 1396 1040 1443 957 1443L271 1443C176 1443 120 1385 120 1286L120 158C120 58 176 0 271 0ZM598-456C681-456 747-389 747-307C747-225 681-158 598-158C514-158 449-225 449-307C449-389 514-456 598-456Z"  horiz-adv-x="1174" vert-adv-y="2048"  />

      
      <glyph glyph-name="uni0206" unicode="&#x0206;" d="M339 1526C384 1526 411 1546 436 1599C465 1671 515 1710 598 1710C679 1710 732 1671 760 1599C784 1546 811 1526 857 1526C906 1526 939 1558 939 1604C939 1621 937 1636 932 1652C899 1776 764 1859 598 1859C437 1859 301 1777 265 1655C259 1641 256 1623 256 1607C256 1559 289 1526 339 1526ZM271 0L957 0C1040 0 1094 47 1094 125C1094 203 1039 250 957 250L422 250L422 614L931 614C1007 614 1057 658 1057 730C1057 802 1006 846 931 846L422 846L422 1193L957 1193C1039 1193 1094 1240 1094 1318C1094 1396 1040 1443 957 1443L271 1443C176 1443 120 1385 120 1286L120 158C120 58 176 0 271 0Z"  horiz-adv-x="1174" vert-adv-y="2048"  />

      
      <glyph glyph-name="uni1EBA" unicode="&#x1EBA;" d="M591 1521C615 1521 635 1527 656 1537C735 1575 792 1655 792 1742C792 1863 699 1937 552 1937C487 1937 442 1923 419 1897C408 1885 402 1870 402 1852C402 1818 427 1795 464 1795C468 1795 475 1796 478 1796C492 1797 505 1799 519 1799C579 1799 615 1771 615 1726C615 1695 597 1665 559 1638C537 1623 520 1607 520 1580C520 1546 546 1521 591 1521ZM271 0L957 0C1040 0 1094 47 1094 125C1094 203 1039 250 957 250L422 250L422 614L931 614C1007 614 1057 658 1057 730C1057 802 1006 846 931 846L422 846L422 1193L957 1193C1039 1193 1094 1240 1094 1318C1094 1396 1040 1443 957 1443L271 1443C176 1443 120 1385 120 1286L120 158C120 58 176 0 271 0Z"  horiz-adv-x="1174" vert-adv-y="2048"  />

      
      <glyph glyph-name="uni011A" unicode="&#x011A;" d="M598 1516C665 1516 704 1536 742 1583L880 1741C898 1763 907 1784 907 1807C907 1851 871 1883 823 1883C788 1883 768 1871 740 1837L601 1668L594 1668L455 1837C428 1871 407 1883 373 1883C325 1883 289 1851 289 1807C289 1784 297 1763 315 1741L453 1584C491 1537 531 1516 598 1516ZM271 0L957 0C1040 0 1094 47 1094 125C1094 203 1039 250 957 250L422 250L422 614L931 614C1007 614 1057 658 1057 730C1057 802 1006 846 931 846L422 846L422 1193L957 1193C1039 1193 1094 1240 1094 1318C1094 1396 1040 1443 957 1443L271 1443C176 1443 120 1385 120 1286L120 158C120 58 176 0 271 0Z"  horiz-adv-x="1174" vert-adv-y="2048"  />

      
      <glyph glyph-name="uni0112" unicode="&#x0112;" d="M316 1620L879 1620C929 1620 961 1650 961 1696C961 1740 929 1768 879 1768L316 1768C266 1768 235 1740 235 1696C235 1650 266 1620 316 1620ZM271 0L957 0C1040 0 1094 47 1094 125C1094 203 1039 250 957 250L422 250L422 614L931 614C1007 614 1057 658 1057 730C1057 802 1006 846 931 846L422 846L422 1193L957 1193C1039 1193 1094 1240 1094 1318C1094 1396 1040 1443 957 1443L271 1443C176 1443 120 1385 120 1286L120 158C120 58 176 0 271 0Z"  horiz-adv-x="1174" vert-adv-y="2048"  />

      
      <glyph glyph-name="uni1E14" unicode="&#x1E14;" d="M561 1855C613 1855 650 1887 650 1931C650 1953 644 1969 631 1986L540 2107C512 2145 485 2163 446 2163C392 2163 352 2129 352 2078C352 2051 364 2029 382 2008L478 1898C505 1867 528 1855 561 1855ZM315 1599L880 1599C927 1599 961 1628 961 1673C961 1717 926 1747 880 1747L315 1747C269 1747 235 1717 235 1673C235 1628 269 1599 315 1599ZM271 0L957 0C1040 0 1094 47 1094 125C1094 203 1039 250 957 250L422 250L422 614L931 614C1007 614 1057 658 1057 730C1057 802 1006 846 931 846L422 846L422 1193L957 1193C1039 1193 1094 1240 1094 1318C1094 1396 1040 1443 957 1443L271 1443C176 1443 120 1385 120 1286L120 158C120 58 176 0 271 0Z"  horiz-adv-x="1174" vert-adv-y="2048"  />

      
      <glyph glyph-name="uni1E16" unicode="&#x1E16;" d="M637 1855C670 1855 693 1867 720 1898L816 2008C835 2029 847 2051 847 2078C847 2129 807 2163 752 2163C714 2163 686 2145 658 2107L567 1986C555 1970 549 1951 549 1932C549 1888 584 1855 637 1855ZM315 1599L880 1599C927 1599 961 1628 961 1673C961 1717 926 1747 880 1747L315 1747C269 1747 235 1717 235 1673C235 1628 269 1599 315 1599ZM271 0L957 0C1040 0 1094 47 1094 125C1094 203 1039 250 957 250L422 250L422 614L931 614C1007 614 1057 658 1057 730C1057 802 1006 846 931 846L422 846L422 1193L957 1193C1039 1193 1094 1240 1094 1318C1094 1396 1040 1443 957 1443L271 1443C176 1443 120 1385 120 1286L120 158C120 58 176 0 271 0Z"  horiz-adv-x="1174" vert-adv-y="2048"  />

      
      <glyph glyph-name="uni1EBC" unicode="&#x1EBC;" d="M330 1552C376 1552 399 1578 409 1622C420 1679 441 1699 475 1699C550 1699 601 1563 740 1563C858 1563 953 1656 953 1783C953 1830 921 1862 875 1862C829 1862 807 1837 796 1790C785 1736 765 1716 733 1716C659 1716 610 1851 468 1851C347 1851 253 1761 253 1632C253 1584 284 1552 330 1552ZM271 0L957 0C1040 0 1094 47 1094 125C1094 203 1039 250 957 250L422 250L422 614L931 614C1007 614 1057 658 1057 730C1057 802 1006 846 931 846L422 846L422 1193L957 1193C1039 1193 1094 1240 1094 1318C1094 1396 1040 1443 957 1443L271 1443C176 1443 120 1385 120 1286L120 158C120 58 176 0 271 0Z"  horiz-adv-x="1174" vert-adv-y="2048"  />

      
      <glyph glyph-name="uni1E18" unicode="&#x1E18;" d="M271 0L957 0C1040 0 1094 47 1094 125C1094 203 1039 250 957 250L422 250L422 614L931 614C1007 614 1057 658 1057 730C1057 802 1006 846 931 846L422 846L422 1193L957 1193C1039 1193 1094 1240 1094 1318C1094 1396 1040 1443 957 1443L271 1443C176 1443 120 1385 120 1286L120 158C120 58 176 0 271 0ZM378-474C412-474 433-461 459-429L594-265L601-265L736-429C762-461 783-474 818-474C867-474 903-440 903-395C903-373 895-356 877-334L738-175C701-130 658-110 598-110C536-110 495-129 457-175L319-333C301-355 293-373 293-395C293-440 329-474 378-474Z"  horiz-adv-x="1174" vert-adv-y="2048"  />

      
      <glyph glyph-name="uni0114" unicode="&#x0114;" d="M598 1539C763 1539 901 1625 934 1749C939 1765 941 1780 941 1797C941 1843 908 1875 859 1875C813 1875 786 1855 762 1802C733 1727 678 1689 598 1689C517 1689 463 1727 434 1802C409 1855 382 1875 337 1875C287 1875 254 1842 254 1794C254 1778 257 1760 263 1746C299 1624 437 1539 598 1539ZM271 0L957 0C1040 0 1094 47 1094 125C1094 203 1039 250 957 250L422 250L422 614L931 614C1007 614 1057 658 1057 730C1057 802 1006 846 931 846L422 846L422 1193L957 1193C1039 1193 1094 1240 1094 1318C1094 1396 1040 1443 957 1443L271 1443C176 1443 120 1385 120 1286L120 158C120 58 176 0 271 0Z"  horiz-adv-x="1174" vert-adv-y="2048"  />

      
      <glyph glyph-name="uni1E1A" unicode="&#x1E1A;" d="M271 0L957 0C1040 0 1094 47 1094 125C1094 203 1039 250 957 250L422 250L422 614L931 614C1007 614 1057 658 1057 730C1057 802 1006 846 931 846L422 846L422 1193L957 1193C1039 1193 1094 1240 1094 1318C1094 1396 1040 1443 957 1443L271 1443C176 1443 120 1385 120 1286L120 158C120 58 176 0 271 0ZM330-411C376-411 399-385 409-341C420-284 441-264 475-264C550-264 601-400 740-400C858-400 953-307 953-180C953-133 921-101 875-101C829-101 807-126 796-173C785-227 765-247 733-247C659-247 610-112 468-112C347-112 253-202 253-331C253-379 284-411 330-411Z"  horiz-adv-x="1174" vert-adv-y="2048"  />

      
      <glyph glyph-name="uni0116" unicode="&#x0116;" d="M598 1561C681 1561 747 1628 747 1710C747 1792 681 1859 598 1859C514 1859 449 1792 449 1710C449 1628 514 1561 598 1561ZM271 0L957 0C1040 0 1094 47 1094 125C1094 203 1039 250 957 250L422 250L422 614L931 614C1007 614 1057 658 1057 730C1057 802 1006 846 931 846L422 846L422 1193L957 1193C1039 1193 1094 1240 1094 1318C1094 1396 1040 1443 957 1443L271 1443C176 1443 120 1385 120 1286L120 158C120 58 176 0 271 0Z"  horiz-adv-x="1174" vert-adv-y="2048"  />

      
      <glyph glyph-name="uni0228" unicode="&#x0228;" d="M271 0L538 0L491-103C480-125 474-145 474-164C474-202 503-226 549-226L570-226C634-226 665-243 665-279C665-317 631-336 565-336C536-336 513-331 492-331C455-331 432-351 432-383C432-416 452-438 495-449C520-456 551-460 590-460C738-460 833-394 833-273C833-171 758-110 645-109L696 0L957 0C1040 0 1094 47 1094 125C1094 203 1039 250 957 250L422 250L422 614L931 614C1007 614 1057 658 1057 730C1057 802 1006 846 931 846L422 846L422 1193L957 1193C1039 1193 1094 1240 1094 1318C1094 1396 1040 1443 957 1443L271 1443C176 1443 120 1385 120 1286L120 158C120 58 176 0 271 0Z"  horiz-adv-x="1174" vert-adv-y="2048"  />

      
      <glyph glyph-name="uni1E1C" unicode="&#x1E1C;" d="M598 1539C763 1539 901 1625 934 1749C939 1765 941 1780 941 1797C941 1843 908 1875 859 1875C813 1875 786 1855 762 1802C733 1727 678 1689 598 1689C517 1689 463 1727 434 1802C409 1855 382 1875 337 1875C287 1875 254 1842 254 1794C254 1778 257 1760 263 1746C299 1624 437 1539 598 1539ZM271 0L538 0L491-103C480-125 474-145 474-164C474-202 503-226 549-226L570-226C634-226 665-243 665-279C665-317 631-336 565-336C536-336 513-331 492-331C455-331 432-351 432-383C432-416 452-438 495-449C520-456 551-460 590-460C738-460 833-394 833-273C833-171 758-110 645-109L696 0L957 0C1040 0 1094 47 1094 125C1094 203 1039 250 957 250L422 250L422 614L931 614C1007 614 1057 658 1057 730C1057 802 1006 846 931 846L422 846L422 1193L957 1193C1039 1193 1094 1240 1094 1318C1094 1396 1040 1443 957 1443L271 1443C176 1443 120 1385 120 1286L120 158C120 58 176 0 271 0Z"  horiz-adv-x="1174" vert-adv-y="2048"  />

      
      <glyph glyph-name="uni0118" unicode="&#x0118;" d="M271 0L773 0L773-4C677-62 617-153 617-248C617-375 728-462 884-462C910-462 934-459 954-454C1011-440 1041-408 1041-363C1041-332 1026-310 998-300C985-295 969-292 950-292C880-292 831-260 831-197C831-143 883-97 955-50L996-23C1063 22 1094 59 1094 125C1094 203 1039 250 957 250L422 250L422 614L931 614C1007 614 1057 658 1057 730C1057 802 1006 846 931 846L422 846L422 1193L957 1193C1039 1193 1094 1240 1094 1318C1094 1396 1040 1443 957 1443L271 1443C176 1443 120 1385 120 1286L120 158C120 58 176 0 271 0Z"  horiz-adv-x="1174" vert-adv-y="2048"  />

      
      <glyph glyph-name="uni46" unicode="&#x46;" d="M271-19C366-19 422 39 422 138L422 568L897 568C976 568 1026 613 1026 688C1026 762 975 807 897 807L422 807L422 1193L946 1193C1028 1193 1083 1240 1083 1318C1083 1396 1029 1443 946 1443L271 1443C176 1443 120 1385 120 1286L120 138C120 39 176-19 271-19Z"  horiz-adv-x="1123" vert-adv-y="2048"  />

      
      <glyph glyph-name="uni1E1E" unicode="&#x1E1E;" d="M580 1561C664 1561 729 1628 729 1710C729 1792 664 1859 580 1859C497 1859 431 1792 431 1710C431 1628 497 1561 580 1561ZM271-19C366-19 422 39 422 138L422 568L897 568C976 568 1026 613 1026 688C1026 762 975 807 897 807L422 807L422 1193L946 1193C1028 1193 1083 1240 1083 1318C1083 1396 1029 1443 946 1443L271 1443C176 1443 120 1385 120 1286L120 138C120 39 176-19 271-19Z"  horiz-adv-x="1123" vert-adv-y="2048"  />

      
      <glyph glyph-name="uni47" unicode="&#x47;" d="M770-24C1177-24 1410 223 1410 590L1410 612C1410 711 1354 769 1259 769L906 769C833 769 785 728 785 659C785 590 834 549 906 549L1116 549L1115 526C1109 347 972 226 775 226C535 226 383 417 383 730C383 1037 526 1218 764 1218C906 1218 1011 1155 1082 1026C1119 965 1164 938 1228 938C1307 938 1360 991 1360 1068C1360 1097 1355 1126 1338 1161C1257 1338 1040 1468 763 1468C339 1468 75 1188 75 726C75 257 339-24 770-24Z"  horiz-adv-x="1489" vert-adv-y="2048"  />

      
      <glyph glyph-name="uni01F4" unicode="&#x01F4;" d="M797 1532C832 1532 851 1542 885 1580L1015 1727C1039 1754 1050 1779 1050 1804C1050 1860 1007 1900 947 1900C903 1900 879 1886 847 1842L724 1678C708 1657 701 1637 701 1615C701 1567 742 1532 797 1532ZM770-24C1177-24 1410 223 1410 590L1410 612C1410 711 1354 769 1259 769L906 769C833 769 785 728 785 659C785 590 834 549 906 549L1116 549L1115 526C1109 347 972 226 775 226C535 226 383 417 383 730C383 1037 526 1218 764 1218C906 1218 1011 1155 1082 1026C1119 965 1164 938 1228 938C1307 938 1360 991 1360 1068C1360 1097 1355 1126 1338 1161C1257 1338 1040 1468 763 1468C339 1468 75 1188 75 726C75 257 339-24 770-24Z"  horiz-adv-x="1489" vert-adv-y="2048"  />

      
      <glyph glyph-name="uni01E6" unicode="&#x01E6;" d="M751 1516C818 1516 857 1536 895 1583L1033 1741C1051 1763 1060 1784 1060 1807C1060 1851 1024 1883 976 1883C941 1883 921 1871 893 1837L754 1668L747 1668L608 1837C581 1871 560 1883 526 1883C478 1883 442 1851 442 1807C442 1784 450 1763 468 1741L606 1584C644 1537 684 1516 751 1516ZM770-24C1177-24 1410 223 1410 590L1410 612C1410 711 1354 769 1259 769L906 769C833 769 785 728 785 659C785 590 834 549 906 549L1116 549L1115 526C1109 347 972 226 775 226C535 226 383 417 383 730C383 1037 526 1218 764 1218C906 1218 1011 1155 1082 1026C1119 965 1164 938 1228 938C1307 938 1360 991 1360 1068C1360 1097 1355 1126 1338 1161C1257 1338 1040 1468 763 1468C339 1468 75 1188 75 726C75 257 339-24 770-24Z"  horiz-adv-x="1489" vert-adv-y="2048"  />

      
      <glyph glyph-name="uni011C" unicode="&#x011C;" d="M531 1521C565 1521 586 1534 612 1567L747 1730L754 1730L889 1567C915 1535 936 1521 971 1521C1020 1521 1056 1555 1056 1600C1056 1622 1048 1640 1030 1662L891 1821C854 1866 811 1885 751 1885C689 1885 648 1866 610 1820L472 1662C454 1640 446 1623 446 1601C446 1556 482 1521 531 1521ZM770-24C1177-24 1410 223 1410 590L1410 612C1410 711 1354 769 1259 769L906 769C833 769 785 728 785 659C785 590 834 549 906 549L1116 549L1115 526C1109 347 972 226 775 226C535 226 383 417 383 730C383 1037 526 1218 764 1218C906 1218 1011 1155 1082 1026C1119 965 1164 938 1228 938C1307 938 1360 991 1360 1068C1360 1097 1355 1126 1338 1161C1257 1338 1040 1468 763 1468C339 1468 75 1188 75 726C75 257 339-24 770-24Z"  horiz-adv-x="1489" vert-adv-y="2048"  />

      
      <glyph glyph-name="uni011E" unicode="&#x011E;" d="M751 1539C916 1539 1054 1625 1087 1749C1092 1765 1094 1780 1094 1797C1094 1843 1061 1875 1012 1875C966 1875 939 1855 915 1802C886 1727 831 1689 751 1689C670 1689 616 1727 587 1802C562 1855 535 1875 490 1875C440 1875 407 1842 407 1794C407 1778 410 1760 416 1746C452 1624 590 1539 751 1539ZM770-24C1177-24 1410 223 1410 590L1410 612C1410 711 1354 769 1259 769L906 769C833 769 785 728 785 659C785 590 834 549 906 549L1116 549L1115 526C1109 347 972 226 775 226C535 226 383 417 383 730C383 1037 526 1218 764 1218C906 1218 1011 1155 1082 1026C1119 965 1164 938 1228 938C1307 938 1360 991 1360 1068C1360 1097 1355 1126 1338 1161C1257 1338 1040 1468 763 1468C339 1468 75 1188 75 726C75 257 339-24 770-24Z"  horiz-adv-x="1489" vert-adv-y="2048"  />

      
      <glyph glyph-name="uni1E20" unicode="&#x1E20;" d="M469 1620L1032 1620C1082 1620 1114 1650 1114 1696C1114 1740 1082 1768 1032 1768L469 1768C419 1768 388 1740 388 1696C388 1650 419 1620 469 1620ZM770-24C1177-24 1410 223 1410 590L1410 612C1410 711 1354 769 1259 769L906 769C833 769 785 728 785 659C785 590 834 549 906 549L1116 549L1115 526C1109 347 972 226 775 226C535 226 383 417 383 730C383 1037 526 1218 764 1218C906 1218 1011 1155 1082 1026C1119 965 1164 938 1228 938C1307 938 1360 991 1360 1068C1360 1097 1355 1126 1338 1161C1257 1338 1040 1468 763 1468C339 1468 75 1188 75 726C75 257 339-24 770-24Z"  horiz-adv-x="1489" vert-adv-y="2048"  />

      
      <glyph glyph-name="uni0120" unicode="&#x0120;" d="M751 1561C834 1561 900 1628 900 1710C900 1792 834 1859 751 1859C667 1859 602 1792 602 1710C602 1628 667 1561 751 1561ZM770-24C1177-24 1410 223 1410 590L1410 612C1410 711 1354 769 1259 769L906 769C833 769 785 728 785 659C785 590 834 549 906 549L1116 549L1115 526C1109 347 972 226 775 226C535 226 383 417 383 730C383 1037 526 1218 764 1218C906 1218 1011 1155 1082 1026C1119 965 1164 938 1228 938C1307 938 1360 991 1360 1068C1360 1097 1355 1126 1338 1161C1257 1338 1040 1468 763 1468C339 1468 75 1188 75 726C75 257 339-24 770-24Z"  horiz-adv-x="1489" vert-adv-y="2048"  />

      
      <glyph glyph-name="uni0122" unicode="&#x0122;" d="M770-24C1177-24 1410 223 1410 590L1410 612C1410 711 1354 769 1259 769L906 769C833 769 785 728 785 659C785 590 834 549 906 549L1116 549L1115 526C1109 347 972 226 775 226C535 226 383 417 383 730C383 1037 526 1218 764 1218C906 1218 1011 1155 1082 1026C1119 965 1164 938 1228 938C1307 938 1360 991 1360 1068C1360 1097 1355 1126 1338 1161C1257 1338 1040 1468 763 1468C339 1468 75 1188 75 726C75 257 339-24 770-24ZM675-510C722-510 751-492 781-438L850-279C862-257 869-233 869-210C869-153 826-114 761-114C703-114 671-142 645-203L587-372C580-389 576-405 576-423C576-476 620-510 675-510Z"  horiz-adv-x="1489" vert-adv-y="2048"  />

      
      <glyph glyph-name="uni48" unicode="&#x48;" d="M271-19C366-19 422 39 422 138L422 608L1072 608L1072 138C1072 39 1128-19 1223-19C1318-19 1374 39 1374 138L1374 1305C1374 1405 1318 1463 1223 1463C1128 1463 1072 1405 1072 1305L1072 857L422 857L422 1305C422 1405 366 1463 271 1463C176 1463 120 1405 120 1305L120 138C120 39 176-19 271-19Z"  horiz-adv-x="1494" vert-adv-y="2048"  />

      
      <glyph glyph-name="uni1E26" unicode="&#x1E26;" d="M543 1570C619 1570 677 1629 677 1700C677 1772 619 1830 543 1830C467 1830 409 1772 409 1700C409 1629 467 1570 543 1570ZM951 1570C1027 1570 1085 1629 1085 1700C1085 1772 1027 1830 951 1830C875 1830 817 1772 817 1700C817 1629 875 1570 951 1570ZM271-19C366-19 422 39 422 138L422 608L1072 608L1072 138C1072 39 1128-19 1223-19C1318-19 1374 39 1374 138L1374 1305C1374 1405 1318 1463 1223 1463C1128 1463 1072 1405 1072 1305L1072 857L422 857L422 1305C422 1405 366 1463 271 1463C176 1463 120 1405 120 1305L120 138C120 39 176-19 271-19Z"  horiz-adv-x="1494" vert-adv-y="2048"  />

      
      <glyph glyph-name="uni021E" unicode="&#x021E;" d="M747 1516C815 1516 853 1536 891 1583L1030 1741C1048 1763 1056 1784 1056 1807C1056 1851 1020 1883 972 1883C938 1883 917 1871 890 1837L751 1668L744 1668L605 1837C577 1871 557 1883 522 1883C474 1883 438 1851 438 1807C438 1784 447 1763 465 1741L602 1584C641 1537 680 1516 747 1516ZM271-19C366-19 422 39 422 138L422 608L1072 608L1072 138C1072 39 1128-19 1223-19C1318-19 1374 39 1374 138L1374 1305C1374 1405 1318 1463 1223 1463C1128 1463 1072 1405 1072 1305L1072 857L422 857L422 1305C422 1405 366 1463 271 1463C176 1463 120 1405 120 1305L120 138C120 39 176-19 271-19Z"  horiz-adv-x="1494" vert-adv-y="2048"  />

      
      <glyph glyph-name="uni0124" unicode="&#x0124;" d="M527 1521C562 1521 583 1534 609 1567L744 1730L751 1730L886 1567C911 1535 933 1521 967 1521C1016 1521 1053 1555 1053 1600C1053 1622 1045 1640 1027 1662L888 1821C851 1866 808 1885 748 1885C686 1885 645 1866 607 1820L468 1662C450 1640 442 1623 442 1601C442 1556 478 1521 527 1521ZM271-19C366-19 422 39 422 138L422 608L1072 608L1072 138C1072 39 1128-19 1223-19C1318-19 1374 39 1374 138L1374 1305C1374 1405 1318 1463 1223 1463C1128 1463 1072 1405 1072 1305L1072 857L422 857L422 1305C422 1405 366 1463 271 1463C176 1463 120 1405 120 1305L120 138C120 39 176-19 271-19Z"  horiz-adv-x="1494" vert-adv-y="2048"  />

      
      <glyph glyph-name="uni1E24" unicode="&#x1E24;" d="M271-19C366-19 422 39 422 138L422 608L1072 608L1072 138C1072 39 1128-19 1223-19C1318-19 1374 39 1374 138L1374 1305C1374 1405 1318 1463 1223 1463C1128 1463 1072 1405 1072 1305L1072 857L422 857L422 1305C422 1405 366 1463 271 1463C176 1463 120 1405 120 1305L120 138C120 39 176-19 271-19ZM747-456C831-456 896-389 896-307C896-225 831-158 747-158C664-158 598-225 598-307C598-389 664-456 747-456Z"  horiz-adv-x="1494" vert-adv-y="2048"  />

      
      <glyph glyph-name="uni1E22" unicode="&#x1E22;" d="M747 1561C831 1561 896 1628 896 1710C896 1792 831 1859 747 1859C664 1859 598 1792 598 1710C598 1628 664 1561 747 1561ZM271-19C366-19 422 39 422 138L422 608L1072 608L1072 138C1072 39 1128-19 1223-19C1318-19 1374 39 1374 138L1374 1305C1374 1405 1318 1463 1223 1463C1128 1463 1072 1405 1072 1305L1072 857L422 857L422 1305C422 1405 366 1463 271 1463C176 1463 120 1405 120 1305L120 138C120 39 176-19 271-19Z"  horiz-adv-x="1494" vert-adv-y="2048"  />

      
      <glyph glyph-name="uni1E2A" unicode="&#x1E2A;" d="M271-19C366-19 422 39 422 138L422 608L1072 608L1072 138C1072 39 1128-19 1223-19C1318-19 1374 39 1374 138L1374 1305C1374 1405 1318 1463 1223 1463C1128 1463 1072 1405 1072 1305L1072 857L422 857L422 1305C422 1405 366 1463 271 1463C176 1463 120 1405 120 1305L120 138C120 39 176-19 271-19ZM747-448C913-448 1050-362 1083-238C1088-222 1091-207 1091-190C1091-144 1057-112 1008-112C963-112 936-132 911-185C882-260 827-298 747-298C667-298 612-260 583-185C559-132 532-112 486-112C437-112 404-145 404-193C404-209 407-227 412-241C449-363 587-448 747-448Z"  horiz-adv-x="1494" vert-adv-y="2048"  />

      
      <glyph glyph-name="uni1E28" unicode="&#x1E28;" d="M316-460C464-460 559-394 559-273C559-171 484-110 371-109L399-49C418-9 422 11 422 73L422 608L1072 608L1072 133C1072 34 1128-24 1223-24C1318-24 1374 34 1374 133L1374 1310C1374 1410 1318 1468 1223 1468C1128 1468 1072 1410 1072 1310L1072 857L422 857L422 1310C422 1410 366 1468 271 1468C176 1468 120 1410 120 1310L120 133C120 42 167-13 250-20L254-20L217-103C206-125 200-145 200-164C200-202 229-226 275-226L296-226C360-226 391-243 391-279C391-317 357-336 291-336C262-336 239-331 218-331C181-331 158-351 158-383C158-416 178-438 221-449C246-456 277-460 316-460Z"  horiz-adv-x="1494" vert-adv-y="2048"  />

      
      <glyph glyph-name="uni0126" unicode="&#x0126;" d="M284-19C379-19 435 39 435 138L435 608L1085 608L1085 138C1085 39 1141-19 1236-19C1331-19 1387 39 1387 138L1387 1051L1399 1051C1466 1051 1508 1091 1508 1157C1508 1223 1466 1263 1400 1263L1387 1263L1387 1305C1387 1405 1331 1463 1236 1463C1141 1463 1085 1405 1085 1305L1085 1263L435 1263L435 1305C435 1405 379 1463 284 1463C189 1463 133 1405 133 1305L133 1263L124 1263C58 1263 15 1223 15 1157C15 1091 58 1051 124 1051L133 1051L133 138C133 39 189-19 284-19ZM435 857L435 1051L1085 1051L1085 857Z"  horiz-adv-x="1521" vert-adv-y="2048"  />

      
      <glyph glyph-name="uni49" unicode="&#x49;" d="M271-19C366-19 422 39 422 138L422 1305C422 1405 366 1463 271 1463C176 1463 120 1405 120 1305L120 138C120 39 176-19 271-19Z"  horiz-adv-x="542" vert-adv-y="2048"  />

      
      <glyph glyph-name="uni0130" unicode="&#x0130;" d="M271 1561C355 1561 420 1628 420 1710C420 1792 355 1859 271 1859C188 1859 122 1792 122 1710C122 1628 188 1561 271 1561ZM271-19C366-19 422 39 422 138L422 1305C422 1405 366 1463 271 1463C176 1463 120 1405 120 1305L120 138C120 39 176-19 271-19Z"  horiz-adv-x="542" vert-adv-y="2048"  />

      
      <glyph glyph-name="unicc" unicode="&#xcc;" d="M222 1536C277 1536 318 1572 318 1620C318 1641 311 1661 295 1683L172 1847C140 1891 116 1905 72 1905C12 1905-31 1865-31 1809C-31 1784-20 1758 4 1731L134 1584C168 1546 187 1536 222 1536ZM271-19C366-19 422 39 422 138L422 1305C422 1405 366 1463 271 1463C176 1463 120 1405 120 1305L120 138C120 39 176-19 271-19Z"  horiz-adv-x="542" vert-adv-y="2048"  />

      
      <glyph glyph-name="uni0208" unicode="&#x0208;" d="M399 1533C449 1533 485 1566 485 1613C485 1635 477 1656 462 1677L352 1822C313 1875 290 1891 247 1891C190 1891 148 1854 148 1803C148 1774 157 1755 177 1732L310 1580C340 1545 364 1533 399 1533ZM54 1533C104 1533 140 1566 140 1613C140 1635 132 1656 117 1677L7 1822C-32 1875-55 1891-98 1891C-155 1891-197 1854-197 1803C-197 1774-188 1755-168 1732L-35 1580C-5 1545 19 1533 54 1533ZM271-19C366-19 422 39 422 138L422 1305C422 1405 366 1463 271 1463C176 1463 120 1405 120 1305L120 138C120 39 176-19 271-19Z"  horiz-adv-x="542" vert-adv-y="2048"  />

      
      <glyph glyph-name="unicd" unicode="&#xcd;" d="M318 1532C353 1532 372 1542 405 1580L535 1727C559 1754 571 1779 571 1804C571 1860 527 1900 467 1900C424 1900 400 1886 367 1842L245 1678C229 1657 221 1637 221 1615C221 1567 263 1532 318 1532ZM271-19C366-19 422 39 422 138L422 1305C422 1405 366 1463 271 1463C176 1463 120 1405 120 1305L120 138C120 39 176-19 271-19Z"  horiz-adv-x="542" vert-adv-y="2048"  />

      
      <glyph glyph-name="unice" unicode="&#xce;" d="M51 1521C86 1521 107 1534 133 1567L268 1730L275 1730L410 1567C435 1535 457 1521 491 1521C540 1521 577 1555 577 1600C577 1622 569 1640 551 1662L412 1821C375 1866 332 1885 272 1885C210 1885 169 1866 131 1820L-8 1662C-26 1640-34 1623-34 1601C-34 1556 2 1521 51 1521ZM271-19C366-19 422 39 422 138L422 1305C422 1405 366 1463 271 1463C176 1463 120 1405 120 1305L120 138C120 39 176-19 271-19Z"  horiz-adv-x="542" vert-adv-y="2048"  />

      
      <glyph glyph-name="uni01CF" unicode="&#x01CF;" d="M271 1516C339 1516 377 1536 415 1583L554 1741C572 1763 580 1784 580 1807C580 1851 544 1883 496 1883C462 1883 441 1871 414 1837L275 1668L268 1668L129 1837C101 1871 81 1883 46 1883C-2 1883-38 1851-38 1807C-38 1784-29 1763-11 1741L126 1584C165 1537 204 1516 271 1516ZM271-19C366-19 422 39 422 138L422 1305C422 1405 366 1463 271 1463C176 1463 120 1405 120 1305L120 138C120 39 176-19 271-19Z"  horiz-adv-x="542" vert-adv-y="2048"  />

      
      <glyph glyph-name="unicf" unicode="&#xcf;" d="M67 1570C143 1570 201 1629 201 1700C201 1772 143 1830 67 1830C-9 1830-67 1772-67 1700C-67 1629-9 1570 67 1570ZM475 1570C551 1570 609 1629 609 1700C609 1772 551 1830 475 1830C399 1830 341 1772 341 1700C341 1629 399 1570 475 1570ZM271-19C366-19 422 39 422 138L422 1305C422 1405 366 1463 271 1463C176 1463 120 1405 120 1305L120 138C120 39 176-19 271-19Z"  horiz-adv-x="542" vert-adv-y="2048"  />

      
      <glyph glyph-name="uni1E2E" unicode="&#x1E2E;" d="M302 1855C336 1855 358 1867 385 1898L482 2008C500 2029 512 2051 512 2078C512 2129 472 2163 418 2163C379 2163 352 2145 323 2107L232 1986C220 1970 214 1951 214 1932C214 1888 249 1855 302 1855ZM72 1545C146 1545 203 1603 203 1673C203 1744 146 1801 72 1801C-3 1801-60 1744-60 1673C-60 1603-3 1545 72 1545ZM471 1545C546 1545 602 1603 602 1673C602 1744 546 1801 471 1801C396 1801 340 1744 340 1673C340 1603 396 1545 471 1545ZM271-19C366-19 422 39 422 138L422 1305C422 1405 366 1463 271 1463C176 1463 120 1405 120 1305L120 138C120 39 176-19 271-19Z"  horiz-adv-x="542" vert-adv-y="2048"  />

      
      <glyph glyph-name="uni012C" unicode="&#x012C;" d="M271 1539C437 1539 574 1625 607 1749C612 1765 615 1780 615 1797C615 1843 581 1875 532 1875C487 1875 460 1855 435 1802C406 1727 351 1689 271 1689C191 1689 136 1727 107 1802C83 1855 56 1875 10 1875C-39 1875-72 1842-72 1794C-72 1778-69 1760-64 1746C-27 1624 111 1539 271 1539ZM271-19C366-19 422 39 422 138L422 1305C422 1405 366 1463 271 1463C176 1463 120 1405 120 1305L120 138C120 39 176-19 271-19Z"  horiz-adv-x="542" vert-adv-y="2048"  />

      
      <glyph glyph-name="uni1ECA" unicode="&#x1ECA;" d="M271-19C366-19 422 39 422 138L422 1305C422 1405 366 1463 271 1463C176 1463 120 1405 120 1305L120 138C120 39 176-19 271-19ZM271-456C355-456 420-389 420-307C420-225 355-158 271-158C188-158 122-225 122-307C122-389 188-456 271-456Z"  horiz-adv-x="542" vert-adv-y="2048"  />

      
      <glyph glyph-name="uni020A" unicode="&#x020A;" d="M12 1526C58 1526 85 1546 109 1599C139 1671 189 1710 271 1710C353 1710 406 1671 433 1599C458 1546 485 1526 530 1526C579 1526 613 1558 613 1604C613 1621 610 1636 605 1652C572 1776 437 1859 271 1859C110 1859-25 1777-62 1655C-67 1641-70 1623-70 1607C-70 1559-37 1526 12 1526ZM271-19C366-19 422 39 422 138L422 1305C422 1405 366 1463 271 1463C176 1463 120 1405 120 1305L120 138C120 39 176-19 271-19Z"  horiz-adv-x="542" vert-adv-y="2048"  />

      
      <glyph glyph-name="uni012A" unicode="&#x012A;" d="M-10 1620L553 1620C603 1620 634 1650 634 1696C634 1740 603 1768 553 1768L-10 1768C-60 1768-92 1740-92 1696C-92 1650-60 1620-10 1620ZM271-19C366-19 422 39 422 138L422 1305C422 1405 366 1463 271 1463C176 1463 120 1405 120 1305L120 138C120 39 176-19 271-19Z"  horiz-adv-x="542" vert-adv-y="2048"  />

      
      <glyph glyph-name="uni1E2C" unicode="&#x1E2C;" d="M271-19C366-19 422 39 422 138L422 1305C422 1405 366 1463 271 1463C176 1463 120 1405 120 1305L120 138C120 39 176-19 271-19ZM4-411C50-411 73-385 83-341C93-284 115-264 149-264C223-264 275-400 414-400C532-400 626-307 626-180C626-133 595-101 549-101C503-101 481-126 470-173C458-227 438-247 406-247C333-247 284-112 142-112C20-112-74-202-74-331C-74-379-43-411 4-411Z"  horiz-adv-x="542" vert-adv-y="2048"  />

      
      <glyph glyph-name="uni1EC8" unicode="&#x1EC8;" d="M264 1521C288 1521 309 1527 330 1537C408 1575 466 1655 466 1742C466 1863 373 1937 226 1937C160 1937 116 1923 93 1897C82 1885 76 1870 76 1852C76 1818 100 1795 137 1795C142 1795 148 1796 152 1796C166 1797 179 1799 192 1799C252 1799 289 1771 289 1726C289 1695 271 1665 232 1638C210 1623 193 1607 193 1580C193 1546 220 1521 264 1521ZM271-19C366-19 422 39 422 138L422 1305C422 1405 366 1463 271 1463C176 1463 120 1405 120 1305L120 138C120 39 176-19 271-19Z"  horiz-adv-x="542" vert-adv-y="2048"  />

      
      <glyph glyph-name="uni0128" unicode="&#x0128;" d="M4 1552C50 1552 73 1578 83 1622C93 1679 115 1699 149 1699C223 1699 275 1563 414 1563C532 1563 626 1656 626 1783C626 1830 595 1862 549 1862C503 1862 481 1837 470 1790C458 1736 438 1716 406 1716C333 1716 284 1851 142 1851C20 1851-74 1761-74 1632C-74 1584-43 1552 4 1552ZM271-19C366-19 422 39 422 138L422 1305C422 1405 366 1463 271 1463C176 1463 120 1405 120 1305L120 138C120 39 176-19 271-19Z"  horiz-adv-x="542" vert-adv-y="2048"  />

      
      <glyph glyph-name="uni012E" unicode="&#x012E;" d="M8-243C8-374 113-462 272-462C302-462 325-459 345-454C403-440 433-408 433-363C433-332 418-310 390-300C377-295 361-293 341-292C267-291 217-257 217-193C217-139 254-91 323-47C404 6 422 44 422 133L422 1310C422 1410 366 1468 271 1468C176 1468 120 1410 120 1310L120 133C120 78 138 35 171 10L171 6C67-55 8-145 8-243Z"  horiz-adv-x="542" vert-adv-y="2048"  />

      
      <glyph glyph-name="uni4a" unicode="&#x4a;" d="M519-24C828-24 1012 150 1012 457L1012 1305C1012 1405 956 1463 861 1463C766 1463 710 1405 710 1305L710 459C710 314 642 236 516 236C420 236 353 290 326 387C302 469 258 505 182 505C97 505 42 450 42 363C42 319 50 283 67 241C135 75 302-24 519-24Z"  horiz-adv-x="1143" vert-adv-y="2048"  />

      
      <glyph glyph-name="uni0134" unicode="&#x0134;" d="M645 1521C680 1521 701 1534 727 1567L862 1730L869 1730L1004 1567C1029 1535 1051 1521 1085 1521C1134 1521 1171 1555 1171 1600C1171 1622 1163 1640 1145 1662L1006 1821C969 1866 926 1885 866 1885C804 1885 763 1866 725 1820L586 1662C568 1640 560 1623 560 1601C560 1556 596 1521 645 1521ZM519-24C828-24 1012 150 1012 457L1012 1305C1012 1405 956 1463 861 1463C766 1463 710 1405 710 1305L710 459C710 314 642 236 516 236C420 236 353 290 326 387C302 469 258 505 182 505C97 505 42 450 42 363C42 319 50 283 67 241C135 75 302-24 519-24Z"  horiz-adv-x="1143" vert-adv-y="2048"  />

      
      <glyph glyph-name="uni4b" unicode="&#x4b;" d="M271-19C366-19 422 39 422 138L422 441L566 592L996 63C1043 3 1085-20 1147-20C1230-20 1293 44 1293 126C1293 167 1273 210 1228 266L795 792L1193 1209C1231 1249 1246 1282 1246 1324C1246 1402 1184 1463 1104 1463C1054 1463 1016 1444 974 1398L431 805L422 805L422 1305C422 1405 366 1463 271 1463C176 1463 120 1405 120 1305L120 138C120 39 176-19 271-19Z"  horiz-adv-x="1353" vert-adv-y="2048"  />

      
      <glyph glyph-name="uni212A" unicode="&#x212A;" d="M271-19C366-19 422 39 422 138L422 441L566 592L996 63C1043 3 1085-20 1147-20C1230-20 1293 44 1293 126C1293 167 1273 210 1228 266L795 792L1193 1209C1231 1249 1246 1282 1246 1324C1246 1402 1184 1463 1104 1463C1054 1463 1016 1444 974 1398L431 805L422 805L422 1305C422 1405 366 1463 271 1463C176 1463 120 1405 120 1305L120 138C120 39 176-19 271-19Z"  horiz-adv-x="1353" vert-adv-y="2048"  />

      
      <glyph glyph-name="uni1E30" unicode="&#x1E30;" d="M713 1532C748 1532 767 1542 800 1580L930 1727C954 1754 966 1779 966 1804C966 1860 922 1900 862 1900C819 1900 795 1886 762 1842L640 1678C624 1657 616 1637 616 1615C616 1567 658 1532 713 1532ZM271-19C366-19 422 39 422 138L422 441L566 592L996 63C1043 3 1085-20 1147-20C1230-20 1293 44 1293 126C1293 167 1273 210 1228 266L795 792L1193 1209C1231 1249 1246 1282 1246 1324C1246 1402 1184 1463 1104 1463C1054 1463 1016 1444 974 1398L431 805L422 805L422 1305C422 1405 366 1463 271 1463C176 1463 120 1405 120 1305L120 138C120 39 176-19 271-19Z"  horiz-adv-x="1353" vert-adv-y="2048"  />

      
      <glyph glyph-name="uni01E8" unicode="&#x01E8;" d="M666 1516C734 1516 772 1536 810 1583L949 1741C967 1763 975 1784 975 1807C975 1851 939 1883 891 1883C857 1883 836 1871 809 1837L670 1668L663 1668L524 1837C496 1871 476 1883 441 1883C393 1883 357 1851 357 1807C357 1784 366 1763 384 1741L521 1584C560 1537 599 1516 666 1516ZM271-19C366-19 422 39 422 138L422 441L566 592L996 63C1043 3 1085-20 1147-20C1230-20 1293 44 1293 126C1293 167 1273 210 1228 266L795 792L1193 1209C1231 1249 1246 1282 1246 1324C1246 1402 1184 1463 1104 1463C1054 1463 1016 1444 974 1398L431 805L422 805L422 1305C422 1405 366 1463 271 1463C176 1463 120 1405 120 1305L120 138C120 39 176-19 271-19Z"  horiz-adv-x="1353" vert-adv-y="2048"  />

      
      <glyph glyph-name="uni1E32" unicode="&#x1E32;" d="M271-19C366-19 422 39 422 138L422 441L566 592L996 63C1043 3 1085-20 1147-20C1230-20 1293 44 1293 126C1293 167 1273 210 1228 266L795 792L1193 1209C1231 1249 1246 1282 1246 1324C1246 1402 1184 1463 1104 1463C1054 1463 1016 1444 974 1398L431 805L422 805L422 1305C422 1405 366 1463 271 1463C176 1463 120 1405 120 1305L120 138C120 39 176-19 271-19ZM666-456C750-456 815-389 815-307C815-225 750-158 666-158C583-158 517-225 517-307C517-389 583-456 666-456Z"  horiz-adv-x="1353" vert-adv-y="2048"  />

      
      <glyph glyph-name="uni1E34" unicode="&#x1E34;" d="M271-19C366-19 422 39 422 138L422 441L566 592L996 63C1043 3 1085-20 1147-20C1230-20 1293 44 1293 126C1293 167 1273 210 1228 266L795 792L1193 1209C1231 1249 1246 1282 1246 1324C1246 1402 1184 1463 1104 1463C1054 1463 1016 1444 974 1398L431 805L422 805L422 1305C422 1405 366 1463 271 1463C176 1463 120 1405 120 1305L120 138C120 39 176-19 271-19ZM385-376L948-376C998-376 1029-346 1029-301C1029-256 998-228 948-228L385-228C335-228 303-256 303-301C303-346 335-376 385-376Z"  horiz-adv-x="1353" vert-adv-y="2048"  />

      
      <glyph glyph-name="uni0136" unicode="&#x0136;" d="M271-19C366-19 422 39 422 138L422 441L566 592L996 63C1043 3 1085-20 1147-20C1230-20 1293 44 1293 126C1293 167 1273 210 1228 266L795 792L1193 1209C1231 1249 1246 1282 1246 1324C1246 1402 1184 1463 1104 1463C1054 1463 1016 1444 974 1398L431 805L422 805L422 1305C422 1405 366 1463 271 1463C176 1463 120 1405 120 1305L120 138C120 39 176-19 271-19ZM591-510C637-510 667-492 696-438L765-279C778-257 785-233 785-210C785-153 741-114 676-114C619-114 586-142 561-203L503-372C496-389 492-405 492-423C492-476 536-510 591-510Z"  horiz-adv-x="1353" vert-adv-y="2048"  />

      
      <glyph glyph-name="uni4c" unicode="&#x4c;" d="M271 0L934 0C1017 0 1071 47 1071 125C1071 203 1016 250 934 250L422 250L422 1305C422 1405 366 1463 271 1463C176 1463 120 1405 120 1305L120 158C120 58 176 0 271 0Z"  horiz-adv-x="1112" vert-adv-y="2048"  />

      
      <glyph glyph-name="uni0139" unicode="&#x0139;" d="M317 1532C352 1532 371 1542 405 1580L535 1727C559 1754 570 1779 570 1804C570 1860 527 1900 467 1900C423 1900 399 1886 367 1842L244 1678C228 1657 221 1637 221 1615C221 1567 262 1532 317 1532ZM271 0L934 0C1017 0 1071 47 1071 125C1071 203 1016 250 934 250L422 250L422 1305C422 1405 366 1463 271 1463C176 1463 120 1405 120 1305L120 158C120 58 176 0 271 0Z"  horiz-adv-x="1112" vert-adv-y="2048"  />

      
      <glyph glyph-name="uni1E3C" unicode="&#x1E3C;" d="M271 0L934 0C1017 0 1071 47 1071 125C1071 203 1016 250 934 250L422 250L422 1305C422 1405 366 1463 271 1463C176 1463 120 1405 120 1305L120 158C120 58 176 0 271 0ZM357-474C391-474 412-461 438-429L573-265L580-265L715-429C741-461 762-474 797-474C846-474 882-440 882-395C882-373 874-356 856-334L717-175C680-130 637-110 577-110C515-110 474-129 436-175L298-333C280-355 272-373 272-395C272-440 308-474 357-474Z"  horiz-adv-x="1112" vert-adv-y="2048"  />

      
      <glyph glyph-name="uni013F" unicode="&#x013F;" d="M271 0L934 0C1017 0 1071 47 1071 125C1071 203 1016 250 934 250L422 250L422 1305C422 1405 366 1463 271 1463C176 1463 120 1405 120 1305L120 158C120 58 176 0 271 0ZM760 568C851 568 924 640 924 732C924 823 851 896 760 896C669 896 596 823 596 732C596 640 669 568 760 568Z"  horiz-adv-x="1132" vert-adv-y="2048"  />

      
      <glyph glyph-name="uni1E36" unicode="&#x1E36;" d="M271 0L934 0C1017 0 1071 47 1071 125C1071 203 1016 250 934 250L422 250L422 1305C422 1405 366 1463 271 1463C176 1463 120 1405 120 1305L120 158C120 58 176 0 271 0ZM577-456C660-456 726-389 726-307C726-225 660-158 577-158C493-158 428-225 428-307C428-389 493-456 577-456Z"  horiz-adv-x="1112" vert-adv-y="2048"  />

      
      <glyph glyph-name="uni1E38" unicode="&#x1E38;" d="M-11 1620L552 1620C602 1620 634 1650 634 1696C634 1740 602 1768 552 1768L-11 1768C-61 1768-92 1740-92 1696C-92 1650-61 1620-11 1620ZM271 0L934 0C1017 0 1071 47 1071 125C1071 203 1016 250 934 250L422 250L422 1305C422 1405 366 1463 271 1463C176 1463 120 1405 120 1305L120 158C120 58 176 0 271 0ZM577-456C660-456 726-389 726-307C726-225 660-158 577-158C493-158 428-225 428-307C428-389 493-456 577-456Z"  horiz-adv-x="1112" vert-adv-y="2048"  />

      
      <glyph glyph-name="uni1E3A" unicode="&#x1E3A;" d="M271 0L934 0C1017 0 1071 47 1071 125C1071 203 1016 250 934 250L422 250L422 1305C422 1405 366 1463 271 1463C176 1463 120 1405 120 1305L120 158C120 58 176 0 271 0ZM295-376L858-376C908-376 940-346 940-301C940-256 908-228 858-228L295-228C245-228 214-256 214-301C214-346 245-376 295-376Z"  horiz-adv-x="1112" vert-adv-y="2048"  />

      
      <glyph glyph-name="uni013B" unicode="&#x013B;" d="M271 0L934 0C1017 0 1071 47 1071 125C1071 203 1016 250 934 250L422 250L422 1305C422 1405 366 1463 271 1463C176 1463 120 1405 120 1305L120 158C120 58 176 0 271 0ZM501-510C548-510 577-492 607-438L676-279C688-257 695-233 695-210C695-153 652-114 587-114C529-114 497-142 471-203L413-372C406-389 402-405 402-423C402-476 446-510 501-510Z"  horiz-adv-x="1112" vert-adv-y="2048"  />

      
      <glyph glyph-name="uni013D" unicode="&#x013D;" d="M271 0L934 0C1017 0 1071 47 1071 125C1071 203 1016 250 934 250L422 250L422 1305C422 1405 366 1463 271 1463C176 1463 120 1405 120 1305L120 158C120 58 176 0 271 0ZM771 921C833 921 869 954 875 1016L905 1316C906 1327 908 1345 908 1356C908 1420 864 1463 792 1463C714 1463 672 1417 672 1348L672 1017C672 957 710 921 771 921Z"  horiz-adv-x="1112" vert-adv-y="2048"  />

      
      <glyph glyph-name="uni0141" unicode="&#x0141;" d="M284-1L947-1C1030-1 1084 46 1084 124C1084 202 1029 249 947 249L435 249L435 790L716 931C764 956 782 982 782 1025C782 1073 747 1106 700 1106C675 1106 659 1101 634 1088L435 988L435 1304C435 1404 379 1462 284 1462C189 1462 133 1404 133 1304L133 837L67 804C19 779 1 753 1 712C1 662 36 629 83 629C102 629 116 631 133 639L133 157C133 57 189-1 284-1Z"  horiz-adv-x="1125" vert-adv-y="2048"  />

      
      <glyph glyph-name="uni4d" unicode="&#x4d;" d="M255-19C340-19 389 33 389 122L389 974L397 974L754 100C779 38 821 9 885 9C948 9 988 37 1014 101L1371 974L1379 974L1379 122C1379 33 1428-19 1513-19C1598-19 1648 33 1648 122L1648 1268C1648 1391 1576 1463 1454 1463C1348 1463 1289 1418 1245 1307L888 420L880 420L522 1307C478 1419 420 1463 315 1463C192 1463 120 1390 120 1268L120 122C120 33 170-19 255-19Z"  horiz-adv-x="1768" vert-adv-y="2048"  />

      
      <glyph glyph-name="uni1E3E" unicode="&#x1E3E;" d="M931 1532C966 1532 985 1542 1018 1580L1148 1727C1172 1754 1184 1779 1184 1804C1184 1860 1140 1900 1080 1900C1037 1900 1013 1886 980 1842L858 1678C842 1657 834 1637 834 1615C834 1567 876 1532 931 1532ZM255-19C340-19 389 33 389 122L389 974L397 974L754 100C779 38 821 9 885 9C948 9 988 37 1014 101L1371 974L1379 974L1379 122C1379 33 1428-19 1513-19C1598-19 1648 33 1648 122L1648 1268C1648 1391 1576 1463 1454 1463C1348 1463 1289 1418 1245 1307L888 420L880 420L522 1307C478 1419 420 1463 315 1463C192 1463 120 1390 120 1268L120 122C120 33 170-19 255-19Z"  horiz-adv-x="1768" vert-adv-y="2048"  />

      
      <glyph glyph-name="uni1E40" unicode="&#x1E40;" d="M884 1561C968 1561 1033 1628 1033 1710C1033 1792 968 1859 884 1859C801 1859 735 1792 735 1710C735 1628 801 1561 884 1561ZM255-19C340-19 389 33 389 122L389 974L397 974L754 100C779 38 821 9 885 9C948 9 988 37 1014 101L1371 974L1379 974L1379 122C1379 33 1428-19 1513-19C1598-19 1648 33 1648 122L1648 1268C1648 1391 1576 1463 1454 1463C1348 1463 1289 1418 1245 1307L888 420L880 420L522 1307C478 1419 420 1463 315 1463C192 1463 120 1390 120 1268L120 122C120 33 170-19 255-19Z"  horiz-adv-x="1768" vert-adv-y="2048"  />

      
      <glyph glyph-name="uni1E42" unicode="&#x1E42;" d="M255-19C340-19 389 33 389 122L389 974L397 974L754 100C779 38 821 9 885 9C948 9 988 37 1014 101L1371 974L1379 974L1379 122C1379 33 1428-19 1513-19C1598-19 1648 33 1648 122L1648 1268C1648 1391 1576 1463 1454 1463C1348 1463 1289 1418 1245 1307L888 420L880 420L522 1307C478 1419 420 1463 315 1463C192 1463 120 1390 120 1268L120 122C120 33 170-19 255-19ZM884-456C968-456 1033-389 1033-307C1033-225 968-158 884-158C801-158 735-225 735-307C735-389 801-456 884-456Z"  horiz-adv-x="1768" vert-adv-y="2048"  />

      
      <glyph glyph-name="uni4e" unicode="&#x4e;" d="M265-19C355-19 409 36 409 132L409 945L418 945L1044 68C1090 4 1130-19 1195-19C1290-19 1343 34 1343 128L1343 1311C1343 1408 1290 1463 1199 1463C1108 1463 1054 1408 1054 1311L1054 503L1046 503L422 1375C376 1438 334 1463 272 1463C176 1463 120 1408 120 1312L120 132C120 36 174-19 265-19Z"  horiz-adv-x="1463" vert-adv-y="2048"  />

      
      <glyph glyph-name="uni01F8" unicode="&#x01F8;" d="M682 1536C737 1536 779 1572 779 1620C779 1641 771 1661 755 1683L633 1847C600 1891 576 1905 533 1905C473 1905 429 1865 429 1809C429 1784 441 1758 465 1731L595 1584C628 1546 647 1536 682 1536ZM265-19C355-19 409 36 409 132L409 945L418 945L1044 68C1090 4 1130-19 1195-19C1290-19 1343 34 1343 128L1343 1311C1343 1408 1290 1463 1199 1463C1108 1463 1054 1408 1054 1311L1054 503L1046 503L422 1375C376 1438 334 1463 272 1463C176 1463 120 1408 120 1312L120 132C120 36 174-19 265-19Z"  horiz-adv-x="1463" vert-adv-y="2048"  />

      
      <glyph glyph-name="uni0143" unicode="&#x0143;" d="M778 1532C813 1532 832 1542 866 1580L996 1727C1020 1754 1031 1779 1031 1804C1031 1860 988 1900 928 1900C884 1900 860 1886 828 1842L705 1678C689 1657 682 1637 682 1615C682 1567 723 1532 778 1532ZM265-19C355-19 409 36 409 132L409 945L418 945L1044 68C1090 4 1130-19 1195-19C1290-19 1343 34 1343 128L1343 1311C1343 1408 1290 1463 1199 1463C1108 1463 1054 1408 1054 1311L1054 503L1046 503L422 1375C376 1438 334 1463 272 1463C176 1463 120 1408 120 1312L120 132C120 36 174-19 265-19Z"  horiz-adv-x="1463" vert-adv-y="2048"  />

      
      <glyph glyph-name="unid1" unicode="&#xd1;" d="M464 1552C510 1552 533 1578 543 1622C554 1679 575 1699 609 1699C684 1699 735 1563 874 1563C992 1563 1087 1656 1087 1783C1087 1830 1055 1862 1009 1862C963 1862 941 1837 930 1790C919 1736 899 1716 867 1716C793 1716 744 1851 602 1851C481 1851 387 1761 387 1632C387 1584 418 1552 464 1552ZM265-19C355-19 409 36 409 132L409 945L418 945L1044 68C1090 4 1130-19 1195-19C1290-19 1343 34 1343 128L1343 1311C1343 1408 1290 1463 1199 1463C1108 1463 1054 1408 1054 1311L1054 503L1046 503L422 1375C376 1438 334 1463 272 1463C176 1463 120 1408 120 1312L120 132C120 36 174-19 265-19Z"  horiz-adv-x="1463" vert-adv-y="2048"  />

      
      <glyph glyph-name="uni1E46" unicode="&#x1E46;" d="M265-19C355-19 409 36 409 132L409 945L418 945L1044 68C1090 4 1130-19 1195-19C1290-19 1343 34 1343 128L1343 1311C1343 1408 1290 1463 1199 1463C1108 1463 1054 1408 1054 1311L1054 503L1046 503L422 1375C376 1438 334 1463 272 1463C176 1463 120 1408 120 1312L120 132C120 36 174-19 265-19ZM732-456C815-456 881-389 881-307C881-225 815-158 732-158C648-158 583-225 583-307C583-389 648-456 732-456Z"  horiz-adv-x="1463" vert-adv-y="2048"  />

      
      <glyph glyph-name="uni1E44" unicode="&#x1E44;" d="M732 1561C815 1561 881 1628 881 1710C881 1792 815 1859 732 1859C648 1859 583 1792 583 1710C583 1628 648 1561 732 1561ZM265-19C355-19 409 36 409 132L409 945L418 945L1044 68C1090 4 1130-19 1195-19C1290-19 1343 34 1343 128L1343 1311C1343 1408 1290 1463 1199 1463C1108 1463 1054 1408 1054 1311L1054 503L1046 503L422 1375C376 1438 334 1463 272 1463C176 1463 120 1408 120 1312L120 132C120 36 174-19 265-19Z"  horiz-adv-x="1463" vert-adv-y="2048"  />

      
      <glyph glyph-name="uni0147" unicode="&#x0147;" d="M732 1516C799 1516 838 1536 876 1583L1014 1741C1032 1763 1041 1784 1041 1807C1041 1851 1005 1883 957 1883C922 1883 902 1871 874 1837L735 1668L728 1668L589 1837C562 1871 541 1883 507 1883C459 1883 423 1851 423 1807C423 1784 431 1763 449 1741L587 1584C625 1537 665 1516 732 1516ZM265-19C355-19 409 36 409 132L409 945L418 945L1044 68C1090 4 1130-19 1195-19C1290-19 1343 34 1343 128L1343 1311C1343 1408 1290 1463 1199 1463C1108 1463 1054 1408 1054 1311L1054 503L1046 503L422 1375C376 1438 334 1463 272 1463C176 1463 120 1408 120 1312L120 132C120 36 174-19 265-19Z"  horiz-adv-x="1463" vert-adv-y="2048"  />

      
      <glyph glyph-name="uni1E4A" unicode="&#x1E4A;" d="M265-19C355-19 409 36 409 132L409 945L418 945L1044 68C1090 4 1130-19 1195-19C1290-19 1343 34 1343 128L1343 1311C1343 1408 1290 1463 1199 1463C1108 1463 1054 1408 1054 1311L1054 503L1046 503L422 1375C376 1438 334 1463 272 1463C176 1463 120 1408 120 1312L120 132C120 36 174-19 265-19ZM512-474C546-474 567-461 593-429L728-265L735-265L870-429C896-461 917-474 952-474C1001-474 1037-440 1037-395C1037-373 1029-356 1011-334L872-175C835-130 792-110 732-110C670-110 629-129 591-175L453-333C435-355 427-373 427-395C427-440 463-474 512-474Z"  horiz-adv-x="1463" vert-adv-y="2048"  />

      
      <glyph glyph-name="uni1E48" unicode="&#x1E48;" d="M265-19C355-19 409 36 409 132L409 945L418 945L1044 68C1090 4 1130-19 1195-19C1290-19 1343 34 1343 128L1343 1311C1343 1408 1290 1463 1199 1463C1108 1463 1054 1408 1054 1311L1054 503L1046 503L422 1375C376 1438 334 1463 272 1463C176 1463 120 1408 120 1312L120 132C120 36 174-19 265-19ZM450-376L1013-376C1063-376 1095-346 1095-301C1095-256 1063-228 1013-228L450-228C400-228 369-256 369-301C369-346 400-376 450-376Z"  horiz-adv-x="1463" vert-adv-y="2048"  />

      
      <glyph glyph-name="uni0145" unicode="&#x0145;" d="M265-19C355-19 409 36 409 132L409 945L418 945L1044 68C1090 4 1130-19 1195-19C1290-19 1343 34 1343 128L1343 1311C1343 1408 1290 1463 1199 1463C1108 1463 1054 1408 1054 1311L1054 503L1046 503L422 1375C376 1438 334 1463 272 1463C176 1463 120 1408 120 1312L120 132C120 36 174-19 265-19ZM656-510C703-510 732-492 762-438L831-279C843-257 850-233 850-210C850-153 807-114 742-114C684-114 652-142 626-203L568-372C561-389 557-405 557-423C557-476 601-510 656-510Z"  horiz-adv-x="1463" vert-adv-y="2048"  />

      
      <glyph glyph-name="uni4f" unicode="&#x4f;" d="M771-24C1198-24 1467 262 1467 721C1467 1181 1198 1468 771 1468C343 1468 75 1181 75 721C75 262 343-24 771-24ZM771 228C534 228 383 419 383 721C383 1024 535 1216 771 1216C1007 1216 1158 1024 1158 721C1158 419 1007 228 771 228Z"  horiz-adv-x="1541" vert-adv-y="2048"  />

      
      <glyph glyph-name="unid6" unicode="&#xd6;" d="M567 1570C643 1570 701 1629 701 1700C701 1772 643 1830 567 1830C491 1830 433 1772 433 1700C433 1629 491 1570 567 1570ZM975 1570C1051 1570 1109 1629 1109 1700C1109 1772 1051 1830 975 1830C899 1830 841 1772 841 1700C841 1629 899 1570 975 1570ZM771-24C1198-24 1467 262 1467 721C1467 1181 1198 1468 771 1468C343 1468 75 1181 75 721C75 262 343-24 771-24ZM771 228C534 228 383 419 383 721C383 1024 535 1216 771 1216C1007 1216 1158 1024 1158 721C1158 419 1007 228 771 228Z"  horiz-adv-x="1541" vert-adv-y="2048"  />

      
      <glyph glyph-name="unid8" unicode="&#xd8;" d="M323-51C347-51 362-42 379-17L425 53C523 2 639-24 771-24C1198-24 1467 262 1467 721C1467 969 1388 1166 1250 1296L1315 1394C1324 1408 1328 1419 1328 1434C1328 1466 1300 1492 1264 1492C1240 1492 1225 1482 1208 1456L1151 1370C1046 1434 918 1468 770 1468C343 1468 75 1181 75 721C75 456 164 249 321 121L274 49C263 32 259 22 259 5C259-26 286-51 323-51ZM383 721C383 1024 535 1216 771 1216C859 1216 936 1188 997 1139L484 366C419 451 383 573 383 721ZM771 228C697 228 631 246 576 281L1081 1041C1131 959 1158 850 1158 721C1158 419 1007 228 771 228Z"  horiz-adv-x="1541" vert-adv-y="2048"  />

      
      <glyph glyph-name="unid5" unicode="&#xd5;" d="M503 1552C549 1552 572 1578 582 1622C593 1679 614 1699 648 1699C723 1699 774 1563 913 1563C1031 1563 1126 1656 1126 1783C1126 1830 1094 1862 1048 1862C1002 1862 980 1837 969 1790C958 1736 938 1716 906 1716C832 1716 783 1851 641 1851C520 1851 426 1761 426 1632C426 1584 457 1552 503 1552ZM771-24C1198-24 1467 262 1467 721C1467 1181 1198 1468 771 1468C343 1468 75 1181 75 721C75 262 343-24 771-24ZM771 228C534 228 383 419 383 721C383 1024 535 1216 771 1216C1007 1216 1158 1024 1158 721C1158 419 1007 228 771 228Z"  horiz-adv-x="1541" vert-adv-y="2048"  />

      
      <glyph glyph-name="unid3" unicode="&#xd3;" d="M817 1532C852 1532 871 1542 905 1580L1035 1727C1059 1754 1070 1779 1070 1804C1070 1860 1027 1900 967 1900C923 1900 899 1886 867 1842L744 1678C728 1657 721 1637 721 1615C721 1567 762 1532 817 1532ZM771-24C1198-24 1467 262 1467 721C1467 1181 1198 1468 771 1468C343 1468 75 1181 75 721C75 262 343-24 771-24ZM771 228C534 228 383 419 383 721C383 1024 535 1216 771 1216C1007 1216 1158 1024 1158 721C1158 419 1007 228 771 228Z"  horiz-adv-x="1541" vert-adv-y="2048"  />

      
      <glyph glyph-name="unid4" unicode="&#xd4;" d="M551 1521C585 1521 606 1534 632 1567L767 1730L774 1730L909 1567C935 1535 956 1521 991 1521C1040 1521 1076 1555 1076 1600C1076 1622 1068 1640 1050 1662L911 1821C874 1866 831 1885 771 1885C709 1885 668 1866 630 1820L492 1662C474 1640 466 1623 466 1601C466 1556 502 1521 551 1521ZM771-24C1198-24 1467 262 1467 721C1467 1181 1198 1468 771 1468C343 1468 75 1181 75 721C75 262 343-24 771-24ZM771 228C534 228 383 419 383 721C383 1024 535 1216 771 1216C1007 1216 1158 1024 1158 721C1158 419 1007 228 771 228Z"  horiz-adv-x="1541" vert-adv-y="2048"  />

      
      <glyph glyph-name="unid2" unicode="&#xd2;" d="M721 1536C776 1536 818 1572 818 1620C818 1641 810 1661 794 1683L672 1847C639 1891 615 1905 572 1905C512 1905 468 1865 468 1809C468 1784 480 1758 504 1731L634 1584C667 1546 686 1536 721 1536ZM771-24C1198-24 1467 262 1467 721C1467 1181 1198 1468 771 1468C343 1468 75 1181 75 721C75 262 343-24 771-24ZM771 228C534 228 383 419 383 721C383 1024 535 1216 771 1216C1007 1216 1158 1024 1158 721C1158 419 1007 228 771 228Z"  horiz-adv-x="1541" vert-adv-y="2048"  />

      
      <glyph glyph-name="uni1ED4" unicode="&#x1ED4;" d="M1081 1762C1108 1762 1134 1771 1156 1786C1210 1818 1245 1878 1245 1952C1245 2073 1165 2143 1029 2143C976 2143 936 2132 910 2113C891 2099 881 2081 881 2058C881 2025 902 2006 940 2006C951 2006 959 2008 971 2010C980 2011 987 2012 997 2012C1047 2012 1081 1984 1081 1944C1081 1914 1068 1890 1042 1870C1021 1853 1014 1840 1014 1818C1014 1786 1043 1762 1081 1762ZM541 1517C574 1517 596 1532 622 1559L767 1710L774 1710L920 1559C945 1532 967 1517 1000 1517C1046 1517 1081 1549 1081 1595C1081 1619 1070 1640 1050 1661L912 1795C871 1837 832 1859 771 1859C710 1859 671 1837 629 1795L492 1661C471 1640 461 1619 461 1595C461 1549 495 1517 541 1517ZM771-24C1198-24 1467 262 1467 721C1467 1181 1198 1468 771 1468C343 1468 75 1181 75 721C75 262 343-24 771-24ZM771 228C534 228 383 419 383 721C383 1024 535 1216 771 1216C1007 1216 1158 1024 1158 721C1158 419 1007 228 771 228Z"  horiz-adv-x="1541" vert-adv-y="2048"  />

      
      <glyph glyph-name="uni1ED2" unicode="&#x1ED2;" d="M983 1869C1033 1869 1072 1903 1072 1946C1072 1967 1066 1984 1054 2001L975 2106C941 2151 916 2166 878 2166C823 2166 784 2130 784 2081C784 2057 793 2035 813 2012L901 1911C930 1878 948 1869 983 1869ZM541 1517C574 1517 596 1532 622 1559L767 1710L774 1710L920 1559C945 1532 967 1517 1000 1517C1046 1517 1081 1549 1081 1595C1081 1619 1070 1640 1050 1661L912 1795C871 1837 832 1859 771 1859C710 1859 671 1837 629 1795L492 1661C471 1640 461 1619 461 1595C461 1549 495 1517 541 1517ZM771-24C1198-24 1467 262 1467 721C1467 1181 1198 1468 771 1468C343 1468 75 1181 75 721C75 262 343-24 771-24ZM771 228C534 228 383 419 383 721C383 1024 535 1216 771 1216C1007 1216 1158 1024 1158 721C1158 419 1007 228 771 228Z"  horiz-adv-x="1541" vert-adv-y="2048"  />

      
      <glyph glyph-name="uni1ECC" unicode="&#x1ECC;" d="M771-24C1198-24 1467 262 1467 721C1467 1181 1198 1468 771 1468C343 1468 75 1181 75 721C75 262 343-24 771-24ZM771 228C534 228 383 419 383 721C383 1024 535 1216 771 1216C1007 1216 1158 1024 1158 721C1158 419 1007 228 771 228ZM771-456C854-456 920-389 920-307C920-225 854-158 771-158C687-158 622-225 622-307C622-389 687-456 771-456Z"  horiz-adv-x="1541" vert-adv-y="2048"  />

      
      <glyph glyph-name="uni020C" unicode="&#x020C;" d="M898 1533C949 1533 984 1566 984 1613C984 1635 977 1656 961 1677L852 1822C813 1875 789 1891 746 1891C690 1891 648 1854 648 1803C648 1774 656 1755 676 1732L809 1580C840 1545 863 1533 898 1533ZM553 1533C604 1533 639 1566 639 1613C639 1635 632 1656 616 1677L507 1822C468 1875 444 1891 401 1891C345 1891 303 1854 303 1803C303 1774 311 1755 331 1732L464 1580C495 1545 518 1533 553 1533ZM771-24C1198-24 1467 262 1467 721C1467 1181 1198 1468 771 1468C343 1468 75 1181 75 721C75 262 343-24 771-24ZM771 228C534 228 383 419 383 721C383 1024 535 1216 771 1216C1007 1216 1158 1024 1158 721C1158 419 1007 228 771 228Z"  horiz-adv-x="1541" vert-adv-y="2048"  />

      
      <glyph glyph-name="uni1E4C" unicode="&#x1E4C;" d="M814 1867C847 1867 870 1881 895 1909L989 2011C1006 2031 1018 2053 1018 2080C1018 2130 977 2163 925 2163C888 2163 862 2149 834 2112L744 1998C731 1980 724 1963 724 1943C724 1896 765 1867 814 1867ZM509 1539C549 1539 570 1558 582 1605C592 1646 612 1674 645 1674C724 1674 766 1539 906 1539C1023 1539 1107 1637 1107 1739C1107 1791 1079 1824 1031 1824C991 1824 971 1803 959 1756C948 1714 930 1691 897 1691C818 1691 776 1824 634 1824C517 1824 432 1727 432 1622C432 1572 461 1539 509 1539ZM771-24C1198-24 1467 262 1467 721C1467 1181 1198 1468 771 1468C343 1468 75 1181 75 721C75 262 343-24 771-24ZM771 228C534 228 383 419 383 721C383 1024 535 1216 771 1216C1007 1216 1158 1024 1158 721C1158 419 1007 228 771 228Z"  horiz-adv-x="1541" vert-adv-y="2048"  />

      
      <glyph glyph-name="uni1E52" unicode="&#x1E52;" d="M810 1855C843 1855 866 1867 893 1898L989 2008C1008 2029 1020 2051 1020 2078C1020 2129 980 2163 925 2163C887 2163 859 2145 831 2107L740 1986C728 1970 722 1951 722 1932C722 1888 757 1855 810 1855ZM488 1599L1053 1599C1100 1599 1134 1628 1134 1673C1134 1717 1099 1747 1053 1747L488 1747C442 1747 408 1717 408 1673C408 1628 442 1599 488 1599ZM771-24C1198-24 1467 262 1467 721C1467 1181 1198 1468 771 1468C343 1468 75 1181 75 721C75 262 343-24 771-24ZM771 228C534 228 383 419 383 721C383 1024 535 1216 771 1216C1007 1216 1158 1024 1158 721C1158 419 1007 228 771 228Z"  horiz-adv-x="1541" vert-adv-y="2048"  />

      
      <glyph glyph-name="uni1ED6" unicode="&#x1ED6;" d="M511 1876C551 1876 573 1892 586 1936C600 1984 621 1999 650 1999C720 1999 764 1875 905 1875C1017 1875 1107 1961 1107 2062C1107 2114 1079 2145 1032 2145C992 2145 970 2129 957 2085C944 2040 920 2023 891 2023C820 2023 779 2146 638 2146C521 2146 436 2060 436 1959C436 1907 464 1876 511 1876ZM561 1529C596 1529 615 1542 641 1571L767 1701L774 1701L900 1571C926 1542 945 1529 981 1529C1026 1529 1059 1560 1059 1607C1059 1631 1050 1649 1029 1672L912 1786C876 1825 838 1839 771 1839C703 1839 665 1825 629 1786L513 1672C491 1649 482 1631 482 1607C482 1560 515 1529 561 1529ZM771-24C1198-24 1467 262 1467 721C1467 1181 1198 1468 771 1468C343 1468 75 1181 75 721C75 262 343-24 771-24ZM771 228C534 228 383 419 383 721C383 1024 535 1216 771 1216C1007 1216 1158 1024 1158 721C1158 419 1007 228 771 228Z"  horiz-adv-x="1541" vert-adv-y="2048"  />

      
      <glyph glyph-name="uni0230" unicode="&#x0230;" d="M493 1925L1049 1925C1101 1925 1131 1955 1131 1999C1131 2042 1101 2073 1049 2073L493 2073C440 2073 410 2042 410 1999C410 1955 440 1925 493 1925ZM771 1555C849 1555 908 1615 908 1689C908 1761 849 1821 771 1821C692 1821 633 1761 633 1689C633 1615 692 1555 771 1555ZM771-24C1198-24 1467 262 1467 721C1467 1181 1198 1468 771 1468C343 1468 75 1181 75 721C75 262 343-24 771-24ZM771 228C534 228 383 419 383 721C383 1024 535 1216 771 1216C1007 1216 1158 1024 1158 721C1158 419 1007 228 771 228Z"  horiz-adv-x="1541" vert-adv-y="2048"  />

      
      <glyph glyph-name="uni1E50" unicode="&#x1E50;" d="M734 1855C786 1855 823 1887 823 1931C823 1953 817 1969 804 1986L713 2107C685 2145 658 2163 619 2163C565 2163 525 2129 525 2078C525 2051 537 2029 555 2008L651 1898C678 1867 701 1855 734 1855ZM488 1599L1053 1599C1100 1599 1134 1628 1134 1673C1134 1717 1099 1747 1053 1747L488 1747C442 1747 408 1717 408 1673C408 1628 442 1599 488 1599ZM771-24C1198-24 1467 262 1467 721C1467 1181 1198 1468 771 1468C343 1468 75 1181 75 721C75 262 343-24 771-24ZM771 228C534 228 383 419 383 721C383 1024 535 1216 771 1216C1007 1216 1158 1024 1158 721C1158 419 1007 228 771 228Z"  horiz-adv-x="1541" vert-adv-y="2048"  />

      
      <glyph glyph-name="uni01D1" unicode="&#x01D1;" d="M771 1516C838 1516 877 1536 915 1583L1053 1741C1071 1763 1080 1784 1080 1807C1080 1851 1044 1883 996 1883C961 1883 941 1871 913 1837L774 1668L767 1668L628 1837C601 1871 580 1883 546 1883C498 1883 462 1851 462 1807C462 1784 470 1763 488 1741L626 1584C664 1537 704 1516 771 1516ZM771-24C1198-24 1467 262 1467 721C1467 1181 1198 1468 771 1468C343 1468 75 1181 75 721C75 262 343-24 771-24ZM771 228C534 228 383 419 383 721C383 1024 535 1216 771 1216C1007 1216 1158 1024 1158 721C1158 419 1007 228 771 228Z"  horiz-adv-x="1541" vert-adv-y="2048"  />

      
      <glyph glyph-name="uni01FE" unicode="&#x01FE;" d="M817 1532C852 1532 871 1542 905 1580L1035 1727C1059 1754 1070 1779 1070 1804C1070 1860 1027 1900 967 1900C923 1900 899 1886 867 1842L744 1678C728 1657 721 1637 721 1615C721 1567 762 1532 817 1532ZM323-51C347-51 362-42 379-17L425 53C523 2 639-24 771-24C1198-24 1467 262 1467 721C1467 969 1388 1166 1250 1296L1315 1394C1324 1408 1328 1419 1328 1434C1328 1466 1300 1492 1264 1492C1240 1492 1225 1482 1208 1456L1151 1370C1046 1434 918 1468 770 1468C343 1468 75 1181 75 721C75 456 164 249 321 121L274 49C263 32 259 22 259 5C259-26 286-51 323-51ZM383 721C383 1024 535 1216 771 1216C859 1216 936 1188 997 1139L484 366C419 451 383 573 383 721ZM771 228C697 228 631 246 576 281L1081 1041C1131 959 1158 850 1158 721C1158 419 1007 228 771 228Z"  horiz-adv-x="1541" vert-adv-y="2048"  />

      
      </font>
</defs>
</svg>
